<svg width="764" height="655" viewBox="0 0 764 655" fill="none" xmlns="http://www.w3.org/2000/svg">
<mask id="mask0_2_21" style="mask-type:alpha" maskUnits="userSpaceOnUse" x="64" y="0" width="700" height="571">
<path d="M635.564 0.431484L763.794 167.543L64.9962 570.997L635.564 0.431484Z" fill="white"/>
</mask>
<g mask="url(#mask0_2_21)">
<path d="M635.564 0.431484L763.794 167.543L64.9962 570.997L635.564 0.431484Z" fill="#5B027A"/>
<circle cx="271.959" cy="411.155" r="534.5" transform="rotate(52.5 271.959 411.155)" fill="#21520B" stroke="black" stroke-width="4"/>
<circle cx="247.365" cy="430.027" r="534.5" transform="rotate(52.5 247.365 430.027)" fill="#D71818" stroke="black" stroke-width="4"/>
<circle cx="287.402" cy="396.784" r="356.5" transform="rotate(52.5 287.402 396.784)" fill="#C0E040" stroke="black" stroke-width="4"/>
<circle cx="62.5137" cy="571.868" r="534.5" transform="rotate(52.5 62.5137 571.868)" fill="#FFC805" stroke="black" stroke-width="4"/>
<path d="M612.244 253.287C581.838 230.078 556.213 216.077 534.576 211.128C535.396 188.954 528.508 160.588 513.968 125.224C545.208 94.4343 600.212 71.8761 670.346 106.921C677.032 143.118 674.873 172.838 664.866 196.926C654.932 220.84 637.183 239.398 612.244 253.287Z" fill="#670D16" stroke="#222222" stroke-width="4"/>
<path d="M592.336 237.686C570.74 221.254 552.436 211.231 536.886 207.578C537.382 191.619 532.442 171.354 522.167 146.254C544.576 124.356 583.796 108.383 633.785 133.197C638.508 159.084 636.911 180.3 629.758 197.48C622.677 214.487 610.07 227.73 592.336 237.686Z" fill="#EDE70F" stroke="#222222" stroke-width="4"/>
<circle cx="74.414" cy="562.737" r="576.5" transform="rotate(52.5 74.414 562.737)" fill="#FF9B04" stroke="black" stroke-width="4"/>
<path d="M533.641 210.923C402.658 145.582 362.034 196.151 358.089 221.969L478.935 379.46C502.799 380.061 561.61 359.663 533.641 210.923Z" fill="#21520B" stroke="black" stroke-width="4"/>
<path d="M518.567 222.489C387.585 157.148 346.96 207.717 343.015 233.536L463.862 391.027C487.725 391.627 546.536 371.23 518.567 222.489Z" fill="white" stroke="black" stroke-width="4"/>
<circle cx="229.118" cy="444.028" r="324.5" transform="rotate(52.5 229.118 444.028)" fill="#FFFA36" stroke="black" stroke-width="4"/>
<rect x="280.617" y="334.555" width="166" height="166" transform="rotate(52.5 280.617 334.555)" fill="#FFC805" stroke="black" stroke-width="4"/>
<path d="M293.467 451.651C272.955 458.903 221.595 444.884 198.48 436.968L68.3156 569.121C151.913 526.942 313.98 444.399 293.467 451.651Z" fill="#9A7B0F" stroke="black" stroke-width="4"/>
<path d="M132.387 390.366L224.497 334.053L280.81 426.163L132.387 390.366Z" fill="#A81F2D" stroke="black" stroke-width="4"/>
<mask id="path-16-inside-1_2_21" fill="white">
<path d="M434.245 427.171C424.92 434.326 414.278 439.574 402.925 442.616C391.572 445.658 379.731 446.435 368.079 444.9C356.426 443.366 345.189 439.552 335.011 433.675C324.832 427.799 315.911 419.975 308.756 410.65C301.601 401.326 296.352 390.683 293.31 379.33C290.268 367.978 289.492 356.137 291.026 344.484C292.561 332.831 296.375 321.595 302.251 311.416C308.128 301.237 315.952 292.316 325.277 285.161L341.094 305.775C334.477 310.853 328.924 317.184 324.754 324.408C320.583 331.631 317.876 339.606 316.787 347.875C315.699 356.145 316.249 364.549 318.408 372.605C320.567 380.662 324.292 388.215 329.37 394.833C334.447 401.45 340.779 407.003 348.002 411.173C355.226 415.344 363.2 418.051 371.47 419.139C379.74 420.228 388.143 419.677 396.2 417.519C404.257 415.36 411.81 411.635 418.427 406.557L434.245 427.171Z"/>
</mask>
<path d="M434.245 427.171C424.92 434.326 414.278 439.574 402.925 442.616C391.572 445.658 379.731 446.435 368.079 444.9C356.426 443.366 345.189 439.552 335.011 433.675C324.832 427.799 315.911 419.975 308.756 410.65C301.601 401.326 296.352 390.683 293.31 379.33C290.268 367.978 289.492 356.137 291.026 344.484C292.561 332.831 296.375 321.595 302.251 311.416C308.128 301.237 315.952 292.316 325.277 285.161L341.094 305.775C334.477 310.853 328.924 317.184 324.754 324.408C320.583 331.631 317.876 339.606 316.787 347.875C315.699 356.145 316.249 364.549 318.408 372.605C320.567 380.662 324.292 388.215 329.37 394.833C334.447 401.45 340.779 407.003 348.002 411.173C355.226 415.344 363.2 418.051 371.47 419.139C379.74 420.228 388.143 419.677 396.2 417.519C404.257 415.36 411.81 411.635 418.427 406.557L434.245 427.171Z" fill="#21520B" stroke="black" stroke-width="8" mask="url(#path-16-inside-1_2_21)"/>
<path d="M281.314 501.492C260.224 506.838 210.361 488.181 188.066 478.184L46.3629 597.881C133.467 563.524 302.403 496.146 281.314 501.492Z" fill="#FFD700" style="mix-blend-mode:overlay"/>
<path d="M281.314 501.492C260.224 506.838 210.361 488.181 188.066 478.184L46.3629 597.881C133.467 563.524 302.403 496.146 281.314 501.492Z" stroke="black" stroke-width="4"/>
<circle cx="71.9416" cy="565.264" r="35" transform="rotate(52.5 71.9416 565.264)" fill="#FFC805" stroke="black" stroke-width="4"/>
<circle cx="52.9012" cy="579.874" r="35" transform="rotate(52.5 52.9012 579.874)" fill="#670D16" stroke="black" stroke-width="4"/>
<path d="M378.014 322.679C350.423 323.682 325.556 290.453 353.491 257.044C313.99 275.38 288.33 242.76 296.44 216.369C304.55 189.978 336.798 190.116 360.423 196.264C385.596 202.788 414.138 200.84 429.652 198.603C423.477 213.01 414.208 240.075 413.994 266.079C413.824 290.499 405.604 321.675 378.014 322.679Z" fill="#5B027A" stroke="black" stroke-width="4"/>
<line x1="525.154" y1="305.1" x2="345.286" y2="409.084" stroke="black"/>
</g>
</svg>
