<svg width="314" height="821" viewBox="0 0 314 821" fill="none" xmlns="http://www.w3.org/2000/svg">
<mask id="mask0_2_8" style="mask-type:alpha" maskUnits="userSpaceOnUse" x="104" y="14" width="210" height="807">
<path d="M313.84 793.409L105.002 820.903L105 14L313.84 793.409Z" fill="white"/>
</mask>
<g mask="url(#mask0_2_8)">
<path d="M313.84 793.409L105.002 820.903L105 14L313.84 793.409Z" fill="#5B027A"/>
<circle cx="139.945" cy="273.156" r="534.5" transform="rotate(172.5 139.945 273.156)" fill="#21520B" stroke="black" stroke-width="4"/>
<circle cx="135.899" cy="242.421" r="534.5" transform="rotate(172.5 135.899 242.421)" fill="#D71818" stroke="black" stroke-width="4"/>
<circle cx="144.669" cy="293.715" r="356.5" transform="rotate(172.5 144.669 293.715)" fill="#C0E040" stroke="black" stroke-width="4"/>
<circle cx="105.486" cy="11.4144" r="534.5" transform="rotate(172.5 105.486 11.4144)" fill="#FFC805" stroke="black" stroke-width="4"/>
<path d="M106.52 646.785C141.823 632.057 166.761 616.866 181.865 600.602C200.659 612.399 228.668 620.617 266.565 625.707C277.609 668.157 269.643 727.071 204.226 770.286C169.536 757.978 144.877 741.248 129.019 720.538C113.276 699.977 106.079 675.327 106.52 646.785Z" fill="#670D16" stroke="#222222" stroke-width="4"/>
<path d="M129.985 637.345C155.014 626.858 172.846 616.018 183.784 604.378C197.357 612.787 217.378 618.641 244.252 622.293C252.011 652.649 246.235 694.6 199.75 725.486C174.971 716.632 157.396 704.641 146.094 689.857C134.906 675.22 129.74 657.681 129.985 637.345Z" fill="#EDE70F" stroke="#222222" stroke-width="4"/>
<circle cx="107.444" cy="26.2861" r="576.5" transform="rotate(172.5 107.444 26.2861)" fill="#FF9B04" stroke="black" stroke-width="4"/>
<path d="M182.511 599.895C304.589 519.131 281.107 458.665 260.72 442.339L63.9056 468.25C51.4535 488.616 39.7126 549.747 182.511 599.895Z" fill="#21520B" stroke="black" stroke-width="4"/>
<path d="M180.031 581.058C302.109 500.294 278.627 439.828 258.24 423.502L61.4256 449.413C48.9735 469.779 37.2327 530.909 180.031 581.058Z" fill="white" stroke="black" stroke-width="4"/>
<circle cx="132.897" cy="219.618" r="324.5" transform="rotate(172.5 132.897 219.618)" fill="#FFFA36" stroke="black" stroke-width="4"/>
<rect x="201.954" y="318.954" width="166" height="166" transform="rotate(172.5 201.954 318.954)" fill="#FFC805" stroke="black" stroke-width="4"/>
<path d="M94.1206 271.535C98.0964 250.144 135.917 212.675 154.33 196.614L104.964 17.8125C99.6933 111.299 90.1449 292.925 94.1206 271.535Z" fill="#9A7B0F" stroke="black" stroke-width="4"/>
<path d="M227.735 162.678L230.448 270.603L122.523 273.317L227.735 162.678Z" fill="#A81F2D" stroke="black" stroke-width="4"/>
<mask id="path-16-inside-1_2_8" fill="white">
<path d="M44.9318 405.691C43.3977 394.039 44.1738 382.198 47.2158 370.845C50.2577 359.492 55.506 348.85 62.661 339.525C69.816 330.201 78.7375 322.377 88.9161 316.5C99.0948 310.623 110.331 306.809 121.984 305.275C133.637 303.741 145.478 304.517 156.83 307.559C168.183 310.601 178.826 315.849 188.15 323.004C197.475 330.159 205.299 339.081 211.175 349.259C217.052 359.438 220.866 370.675 222.4 382.327L196.639 385.719C195.551 377.449 192.844 369.475 188.673 362.251C184.503 355.027 178.95 348.696 172.333 343.618C165.715 338.54 158.162 334.816 150.105 332.657C142.049 330.498 133.645 329.947 125.376 331.036C117.106 332.125 109.131 334.832 101.908 339.002C94.6841 343.173 88.3527 348.725 83.2749 355.343C78.1971 361.96 74.4725 369.513 72.3137 377.57C70.1548 385.627 69.604 394.03 70.6928 402.3L44.9318 405.691Z"/>
</mask>
<path d="M44.9318 405.691C43.3977 394.039 44.1738 382.198 47.2158 370.845C50.2577 359.492 55.506 348.85 62.661 339.525C69.816 330.201 78.7375 322.377 88.9161 316.5C99.0948 310.623 110.331 306.809 121.984 305.275C133.637 303.741 145.478 304.517 156.83 307.559C168.183 310.601 178.826 315.849 188.15 323.004C197.475 330.159 205.299 339.081 211.175 349.259C217.052 359.438 220.866 370.675 222.4 382.327L196.639 385.719C195.551 377.449 192.844 369.475 188.673 362.251C184.503 355.027 178.95 348.696 172.333 343.618C165.715 338.54 158.162 334.816 150.105 332.657C142.049 330.498 133.645 329.947 125.376 331.036C117.106 332.125 109.131 334.832 101.908 339.002C94.6841 343.173 88.3527 348.725 83.2749 355.343C78.1971 361.96 74.4725 369.513 72.3137 377.57C70.1548 385.627 69.604 394.03 70.6928 402.3L44.9318 405.691Z" fill="#21520B" stroke="black" stroke-width="8" mask="url(#path-16-inside-1_2_8)"/>
<path d="M57.0336 236.088C62.9487 215.151 104.037 181.298 123.842 166.988L91.0338 -15.5791C77.2357 77.034 51.1184 257.026 57.0336 236.088Z" fill="#FFD700" style="mix-blend-mode:overlay"/>
<path d="M57.0336 236.088C62.9487 215.151 104.037 181.298 123.842 166.988L91.0338 -15.5791C77.2357 77.034 51.1184 257.026 57.0336 236.088Z" stroke="black" stroke-width="4"/>
<circle cx="106.492" cy="22.8813" r="35" transform="rotate(172.5 106.492 22.8813)" fill="#FFC805" stroke="black" stroke-width="4"/>
<circle cx="103.359" cy="-0.913405" r="35" transform="rotate(172.5 103.359 -0.913405)" fill="#670D16" stroke="black" stroke-width="4"/>
<path d="M163.541 409.24C176.467 384.844 217.677 379.923 232.643 420.82C236.515 377.443 277.594 371.531 296.394 391.75C315.194 411.969 298.952 439.827 281.814 457.213C263.578 475.752 250.994 501.444 245.174 515.998C235.785 503.446 216.98 481.886 194.567 468.699C173.504 456.343 150.614 433.636 163.541 409.24Z" fill="#5B027A" stroke="black" stroke-width="4"/>
<line x1="105.195" y1="545.456" x2="105.075" y2="337.694" stroke="black"/>
</g>
</svg>
