<svg width="502" height="821" viewBox="0 0 502 821" fill="none" xmlns="http://www.w3.org/2000/svg">
<mask id="mask0_2_11" style="mask-type:alpha" maskUnits="userSpaceOnUse" x="0" y="0" width="405" height="780">
<path d="M195.16 0.591166L0.553921 81.1996L404.004 779.999L195.16 0.591166Z" fill="white"/>
</mask>
<g mask="url(#mask0_2_11)">
<path d="M195.16 0.591166L0.553921 81.1996L404.004 779.999L195.16 0.591166Z" fill="#5B027A"/>
<circle cx="536.5" cy="536.5" r="534.5" transform="matrix(-0.92388 0.382683 0.382683 0.92388 595.041 -162.88)" fill="#21520B" stroke="black" stroke-width="4"/>
<circle cx="536.5" cy="536.5" r="534.5" transform="matrix(-0.92388 0.382683 0.382683 0.92388 606.904 -134.24)" fill="#D71818" stroke="black" stroke-width="4"/>
<circle cx="358.5" cy="358.5" r="356.5" transform="matrix(-0.92388 0.382683 0.382683 0.92388 492.52 49.521)" fill="#C0E040" stroke="black" stroke-width="4"/>
<circle cx="536.5" cy="536.5" r="534.5" transform="matrix(-0.92388 0.382683 0.382683 0.92388 696.07 81.0239)" fill="#FFC805" stroke="black" stroke-width="4"/>
<path d="M88.928 231.231C126.865 226.334 156.057 227.021 177.27 233.554C187.647 213.94 207.795 192.819 238.07 169.463C226.41 127.178 190.054 80.1401 111.793 75.4226C87.9047 103.427 74.9144 130.245 71.5364 156.109C68.1829 181.787 74.2752 206.733 88.928 231.231Z" fill="#670D16" stroke="#222222" stroke-width="4"/>
<path d="M113.969 227.674C140.888 224.241 161.752 224.713 177.044 229.324C184.594 215.256 199.005 200.175 220.453 183.576C211.995 153.407 186.017 119.964 130.317 116.459C113.285 136.516 104.059 155.688 101.664 174.143C99.2931 192.412 103.589 210.184 113.969 227.674Z" fill="#EDE70F" stroke="#222222" stroke-width="4"/>
<circle cx="578.5" cy="578.5" r="576.5" transform="matrix(-0.92388 0.382683 0.382683 0.92388 713.06 12.29)" fill="#FF9B04" stroke="black" stroke-width="4"/>
<path d="M178.182 233.843C324.287 242.748 334.184 306.854 324.692 331.186L141.29 407.154C120.323 395.742 79.5901 348.672 178.182 233.843Z" fill="#21520B" stroke="black" stroke-width="4"/>
<path d="M185.453 251.397C331.558 260.302 341.455 324.408 331.963 348.74L148.561 424.708C127.594 413.296 86.8611 366.226 185.453 251.397Z" fill="white" stroke="black" stroke-width="4"/>
<circle cx="326.5" cy="326.5" r="324.5" transform="matrix(-0.92388 0.382683 0.382683 0.92388 502.055 161.387)" fill="#FFFA36" stroke="black" stroke-width="4"/>
<rect x="-1.08239" y="2.61313" width="166" height="166" transform="matrix(-0.92388 0.382683 0.382683 0.92388 333.491 465.424)" fill="#FFC805" stroke="black" stroke-width="4"/>
<path d="M265.815 562.407C279.953 578.944 331.441 592.483 355.418 597.185L402.067 776.715C350.759 698.389 251.676 545.87 265.815 562.407Z" fill="#9A7B0F" stroke="black" stroke-width="4"/>
<path d="M435.957 589.873L384.344 495.05L289.52 546.662L435.957 589.873Z" fill="#A81F2D" stroke="black" stroke-width="4"/>
<mask id="path-16-inside-1_2_11" fill="white">
<path d="M156.138 470.818C160.635 481.677 167.228 491.543 175.539 499.854C183.85 508.165 193.716 514.757 204.575 519.255C215.433 523.753 227.071 526.068 238.825 526.068C250.578 526.068 262.216 523.753 273.075 519.255C283.934 514.757 293.8 508.165 302.111 499.854C310.422 491.543 317.014 481.677 321.512 470.818C326.01 459.96 328.325 448.321 328.325 436.568C328.325 424.815 326.01 413.177 321.512 402.318L297.507 412.261C300.699 419.967 302.342 428.227 302.342 436.568C302.342 444.909 300.699 453.169 297.507 460.875C294.315 468.581 289.636 475.583 283.738 481.481C277.84 487.379 270.838 492.058 263.132 495.25C255.425 498.442 247.166 500.085 238.825 500.085C230.484 500.085 222.224 498.442 214.518 495.25C206.812 492.058 199.81 487.379 193.912 481.481C188.014 475.583 183.335 468.581 180.143 460.875L156.138 470.818Z"/>
</mask>
<path d="M156.138 470.818C160.635 481.677 167.228 491.543 175.539 499.854C183.85 508.165 193.716 514.757 204.575 519.255C215.433 523.753 227.071 526.068 238.825 526.068C250.578 526.068 262.216 523.753 273.075 519.255C283.934 514.757 293.8 508.165 302.111 499.854C310.422 491.543 317.014 481.677 321.512 470.818C326.01 459.96 328.325 448.321 328.325 436.568C328.325 424.815 326.01 413.177 321.512 402.318L297.507 412.261C300.699 419.967 302.342 428.227 302.342 436.568C302.342 444.909 300.699 453.169 297.507 460.875C294.315 468.581 289.636 475.583 283.738 481.481C277.84 487.379 270.838 492.058 263.132 495.25C255.425 498.442 247.166 500.085 238.825 500.085C230.484 500.085 222.224 498.442 214.518 495.25C206.812 492.058 199.81 487.379 193.912 481.481C188.014 475.583 183.335 468.581 180.143 460.875L156.138 470.818Z" fill="#21520B" stroke="black" stroke-width="8" mask="url(#path-16-inside-1_2_11)"/>
<path d="M251.42 611.648C267.011 626.823 319.521 635.596 343.828 638.086L406.698 812.598C348.442 739.292 235.828 596.473 251.42 611.648Z" fill="#FFD700" style="mix-blend-mode:overlay"/>
<path d="M251.42 611.648C267.011 626.823 319.521 635.596 343.828 638.086L406.698 812.598C348.442 739.292 235.828 596.473 251.42 611.648Z" stroke="black" stroke-width="4"/>
<circle cx="37" cy="37" r="35" transform="matrix(-0.92388 0.382683 0.382683 0.92388 420.879 723.219)" fill="#FFC805" stroke="black" stroke-width="4"/>
<circle cx="37" cy="37" r="35" transform="matrix(-0.92388 0.382683 0.382683 0.92388 430.064 745.392)" fill="#670D16" stroke="black" stroke-width="4"/>
<path d="M257.082 408.44C280.474 423.105 318.624 406.761 311.136 363.861C336.177 399.491 374.71 384.071 380.881 357.161C387.053 330.251 359.057 314.246 335.523 307.758C310.461 300.821 286.716 284.863 274.399 275.169C272.544 290.733 267.038 318.807 254.222 341.434C242.159 362.667 233.689 393.776 257.082 408.44Z" fill="#5B027A" stroke="black" stroke-width="4"/>
<line y1="-0.5" x2="207.762" y2="-0.5" transform="matrix(0.499502 0.866313 0.866313 -0.499502 138.877 319.397)" stroke="black"/>
</g>
</svg>
