<svg width="502" height="821" viewBox="0 0 502 821" fill="none" xmlns="http://www.w3.org/2000/svg">
<mask id="mask0_2_23" style="mask-type:alpha" maskUnits="userSpaceOnUse" x="98" y="0" width="404" height="781">
<path d="M306.846 0.594096L501.452 81.2025L98.0026 780.002L306.846 0.594096Z" fill="white"/>
</mask>
<g mask="url(#mask0_2_23)">
<path d="M306.846 0.594096L501.452 81.2025L98.0026 780.002L306.846 0.594096Z" fill="#5B027A"/>
<circle cx="197.317" cy="538.094" r="534.5" transform="rotate(22.5 197.317 538.094)" fill="#21520B" stroke="black" stroke-width="4"/>
<circle cx="185.454" cy="566.734" r="534.5" transform="rotate(22.5 185.454 566.734)" fill="#D71818" stroke="black" stroke-width="4"/>
<circle cx="203.505" cy="517.927" r="356.5" transform="rotate(22.5 203.505 517.927)" fill="#C0E040" stroke="black" stroke-width="4"/>
<circle cx="96.2884" cy="781.998" r="534.5" transform="rotate(22.5 96.2884 781.998)" fill="#FFC805" stroke="black" stroke-width="4"/>
<path d="M413.078 231.233C375.141 226.337 345.949 227.024 324.736 233.557C314.359 213.943 294.211 192.822 263.937 169.466C275.597 127.181 311.953 80.143 390.213 75.4255C414.102 103.43 427.092 130.248 430.47 156.112C433.823 181.79 427.731 206.736 413.078 231.233Z" fill="#670D16" stroke="#222222" stroke-width="4"/>
<path d="M388.037 227.677C361.119 224.244 340.255 224.716 324.962 229.327C317.412 215.258 303.001 200.178 281.553 183.579C290.011 153.41 315.99 119.967 371.689 116.462C388.722 136.519 397.947 155.691 400.342 174.146C402.713 192.415 398.417 210.187 388.037 227.677Z" fill="#EDE70F" stroke="#222222" stroke-width="4"/>
<circle cx="102.029" cy="768.14" r="576.5" transform="rotate(22.5 102.029 768.14)" fill="#FF9B04" stroke="black" stroke-width="4"/>
<path d="M323.824 233.846C177.719 242.751 167.822 306.857 177.314 331.189L360.716 407.157C381.683 395.745 422.416 348.675 323.824 233.846Z" fill="#21520B" stroke="black" stroke-width="4"/>
<path d="M316.553 251.4C170.448 260.305 160.551 324.411 170.043 348.743L353.445 424.711C374.412 413.299 415.145 366.229 316.553 251.4Z" fill="white" stroke="black" stroke-width="4"/>
<circle cx="176.652" cy="587.983" r="324.5" transform="rotate(22.5 176.652 587.983)" fill="#FFFA36" stroke="black" stroke-width="4"/>
<rect x="166.515" y="467.427" width="166" height="166" transform="rotate(22.5 166.515 467.427)" fill="#FFC805" stroke="black" stroke-width="4"/>
<path d="M236.192 562.41C222.053 578.947 170.565 592.486 146.588 597.188L99.9395 776.718C151.248 698.392 250.33 545.873 236.192 562.41Z" fill="#9A7B0F" stroke="black" stroke-width="4"/>
<path d="M66.0498 589.876L117.662 495.053L212.486 546.665L66.0498 589.876Z" fill="#A81F2D" stroke="black" stroke-width="4"/>
<mask id="path-16-inside-1_2_23" fill="white">
<path d="M345.869 470.821C341.371 481.68 334.778 491.546 326.467 499.857C318.157 508.168 308.29 514.76 297.432 519.258C286.573 523.756 274.935 526.071 263.181 526.071C251.428 526.071 239.79 523.756 228.931 519.258C218.073 514.76 208.206 508.168 199.895 499.857C191.585 491.546 184.992 481.68 180.494 470.821C175.996 459.963 173.681 448.324 173.681 436.571C173.681 424.818 175.996 413.179 180.494 402.321L204.5 412.264C201.308 419.97 199.665 428.23 199.665 436.571C199.665 444.912 201.308 453.172 204.5 460.878C207.692 468.584 212.37 475.586 218.268 481.484C224.166 487.382 231.168 492.061 238.875 495.253C246.581 498.445 254.84 500.088 263.181 500.088C271.523 500.088 279.782 498.445 287.488 495.253C295.194 492.061 302.196 487.382 308.095 481.484C313.993 475.586 318.671 468.584 321.863 460.878L345.869 470.821Z"/>
</mask>
<path d="M345.869 470.821C341.371 481.68 334.778 491.546 326.467 499.857C318.157 508.168 308.29 514.76 297.432 519.258C286.573 523.756 274.935 526.071 263.181 526.071C251.428 526.071 239.79 523.756 228.931 519.258C218.073 514.76 208.206 508.168 199.895 499.857C191.585 491.546 184.992 481.68 180.494 470.821C175.996 459.963 173.681 448.324 173.681 436.571C173.681 424.818 175.996 413.179 180.494 402.321L204.5 412.264C201.308 419.97 199.665 428.23 199.665 436.571C199.665 444.912 201.308 453.172 204.5 460.878C207.692 468.584 212.37 475.586 218.268 481.484C224.166 487.382 231.168 492.061 238.875 495.253C246.581 498.445 254.84 500.088 263.181 500.088C271.523 500.088 279.782 498.445 287.488 495.253C295.194 492.061 302.196 487.382 308.095 481.484C313.993 475.586 318.671 468.584 321.863 460.878L345.869 470.821Z" fill="#21520B" stroke="black" stroke-width="8" mask="url(#path-16-inside-1_2_23)"/>
<path d="M250.587 611.651C234.995 626.825 182.485 635.599 158.179 638.089L95.3079 812.601C153.564 739.295 266.178 596.476 250.587 611.651Z" fill="#FFD700" style="mix-blend-mode:overlay"/>
<path d="M250.587 611.651C234.995 626.825 182.485 635.599 158.179 638.089L95.3079 812.601C153.564 739.295 266.178 596.476 250.587 611.651Z" stroke="black" stroke-width="4"/>
<circle cx="101.151" cy="771.565" r="35" transform="rotate(22.5 101.151 771.565)" fill="#FFC805" stroke="black" stroke-width="4"/>
<circle cx="91.9668" cy="793.738" r="35" transform="rotate(22.5 91.9668 793.738)" fill="#670D16" stroke="black" stroke-width="4"/>
<path d="M244.925 408.443C221.532 423.108 183.383 406.764 190.87 363.864C165.829 399.493 127.297 384.074 121.125 357.164C114.953 330.254 142.949 314.249 166.483 307.761C191.546 300.824 215.29 284.866 227.608 275.172C229.462 290.736 234.968 318.81 247.785 341.437C259.848 362.67 268.317 393.779 244.925 408.443Z" fill="#5B027A" stroke="black" stroke-width="4"/>
<line x1="363.562" y1="319.65" x2="259.785" y2="499.637" stroke="black"/>
</g>
</svg>
