<svg width="655" height="764" viewBox="0 0 655 764" fill="none" xmlns="http://www.w3.org/2000/svg">
<mask id="mask0_2_19" style="mask-type:alpha" maskUnits="userSpaceOnUse" x="84" y="0" width="571" height="699">
<path d="M654.565 128.431L487.453 0.201963L84.0001 699L654.565 128.431Z" fill="white"/>
</mask>
<g mask="url(#mask0_2_19)">
<path d="M654.565 128.431L487.453 0.201963L84.0001 699L654.565 128.431Z" fill="#5B027A"/>
<circle cx="536.5" cy="536.5" r="534.5" transform="matrix(-0.793353 -0.608761 -0.608761 0.793353 996.076 393.003)" fill="#21520B" stroke="black" stroke-width="4"/>
<circle cx="536.5" cy="536.5" r="534.5" transform="matrix(-0.793353 -0.608761 -0.608761 0.793353 977.205 417.597)" fill="#D71818" stroke="black" stroke-width="4"/>
<circle cx="358.5" cy="358.5" r="356.5" transform="matrix(-0.793353 -0.608761 -0.608761 0.793353 760.871 410.418)" fill="#C0E040" stroke="black" stroke-width="4"/>
<circle cx="536.5" cy="536.5" r="534.5" transform="matrix(-0.793353 -0.608761 -0.608761 0.793353 835.363 602.448)" fill="#FFC805" stroke="black" stroke-width="4"/>
<path d="M401.71 151.752C424.919 182.158 438.919 207.783 443.868 229.42C466.043 228.6 494.409 235.488 529.773 250.028C560.562 218.788 583.12 163.784 548.076 93.6495C511.879 86.9636 482.159 89.1226 458.071 99.1295C434.157 109.064 415.598 126.813 401.71 151.752Z" fill="#670D16" stroke="#222222" stroke-width="4"/>
<path d="M417.31 171.66C433.743 193.255 443.766 211.56 447.419 227.109C463.378 226.614 483.643 231.554 508.742 241.829C530.641 219.419 546.613 180.2 521.799 130.21C495.913 125.488 474.697 127.084 457.517 134.238C440.51 141.319 427.267 153.925 417.31 171.66Z" fill="#EDE70F" stroke="#222222" stroke-width="4"/>
<circle cx="578.5" cy="578.5" r="576.5" transform="matrix(-0.793353 -0.608761 -0.608761 0.793353 903.384 582.795)" fill="#FF9B04" stroke="black" stroke-width="4"/>
<path d="M444.074 230.355C509.415 361.337 458.846 401.962 433.027 405.907L275.537 285.06C274.936 261.197 295.333 202.386 444.074 230.355Z" fill="#21520B" stroke="black" stroke-width="4"/>
<path d="M432.508 245.428C497.848 376.411 447.28 417.035 421.461 420.981L263.97 300.134C263.369 276.27 283.767 217.459 432.508 245.428Z" fill="white" stroke="black" stroke-width="4"/>
<circle cx="326.5" cy="326.5" r="324.5" transform="matrix(-0.793353 -0.608761 -0.608761 0.793353 668.759 474.608)" fill="#FFFA36" stroke="black" stroke-width="4"/>
<rect x="-2.80423" y="0.369184" width="166" height="166" transform="matrix(-0.793353 -0.608761 -0.608761 0.793353 318.442 481.379)" fill="#FFC805" stroke="black" stroke-width="4"/>
<path d="M203.346 470.528C196.094 491.041 210.113 542.4 218.029 565.516L85.8757 695.68C128.054 612.083 210.598 450.016 203.346 470.528Z" fill="#9A7B0F" stroke="black" stroke-width="4"/>
<path d="M264.63 631.608L320.944 539.499L228.834 483.186L264.63 631.608Z" fill="#A81F2D" stroke="black" stroke-width="4"/>
<mask id="path-16-inside-1_2_19" fill="white">
<path d="M227.825 329.751C220.67 339.075 215.422 349.718 212.38 361.071C209.338 372.423 208.562 384.264 210.096 395.917C211.63 407.57 215.445 418.806 221.321 428.985C227.198 439.164 235.022 448.085 244.346 455.24C253.671 462.395 264.313 467.643 275.666 470.685C287.019 473.727 298.86 474.503 310.513 472.969C322.165 471.435 333.402 467.621 343.581 461.744C353.759 455.867 362.681 448.044 369.836 438.719L349.222 422.901C344.144 429.519 337.813 435.071 330.589 439.242C323.365 443.413 315.391 446.119 307.121 447.208C298.851 448.297 290.448 447.746 282.391 445.587C274.334 443.428 266.781 439.704 260.164 434.626C253.547 429.548 247.994 423.217 243.823 415.993C239.653 408.77 236.946 400.795 235.857 392.525C234.768 384.256 235.319 375.852 237.478 367.796C239.637 359.739 243.362 352.186 248.439 345.568L227.825 329.751Z"/>
</mask>
<path d="M227.825 329.751C220.67 339.075 215.422 349.718 212.38 361.071C209.338 372.423 208.562 384.264 210.096 395.917C211.63 407.57 215.445 418.806 221.321 428.985C227.198 439.164 235.022 448.085 244.346 455.24C253.671 462.395 264.313 467.643 275.666 470.685C287.019 473.727 298.86 474.503 310.513 472.969C322.165 471.435 333.402 467.621 343.581 461.744C353.759 455.867 362.681 448.044 369.836 438.719L349.222 422.901C344.144 429.519 337.813 435.071 330.589 439.242C323.365 443.413 315.391 446.119 307.121 447.208C298.851 448.297 290.448 447.746 282.391 445.587C274.334 443.428 266.781 439.704 260.164 434.626C253.547 429.548 247.994 423.217 243.823 415.993C239.653 408.77 236.946 400.795 235.857 392.525C234.768 384.256 235.319 375.852 237.478 367.796C239.637 359.739 243.362 352.186 248.439 345.568L227.825 329.751Z" fill="#21520B" stroke="black" stroke-width="8" mask="url(#path-16-inside-1_2_19)"/>
<path d="M153.504 482.682C148.158 503.772 166.815 553.634 176.812 575.929L57.1156 717.633C91.4727 630.528 158.85 461.592 153.504 482.682Z" fill="#FFD700" style="mix-blend-mode:overlay"/>
<path d="M153.504 482.682C148.158 503.772 166.815 553.634 176.812 575.929L57.1156 717.633C91.4727 630.528 158.85 461.592 153.504 482.682Z" stroke="black" stroke-width="4"/>
<circle cx="37" cy="37" r="35" transform="matrix(-0.793353 -0.608761 -0.608761 0.793353 141.611 685.224)" fill="#FFC805" stroke="black" stroke-width="4"/>
<circle cx="37" cy="37" r="35" transform="matrix(-0.793353 -0.608761 -0.608761 0.793353 127.001 704.265)" fill="#670D16" stroke="black" stroke-width="4"/>
<path d="M332.318 385.982C331.315 413.572 364.543 438.439 397.952 410.505C379.617 450.006 412.237 475.666 438.627 467.556C465.018 459.446 464.881 427.198 458.732 403.573C452.209 378.4 454.157 349.858 456.393 334.343C441.987 340.519 414.921 349.788 388.917 350.002C364.498 350.172 333.322 358.391 332.318 385.982Z" fill="#5B027A" stroke="black" stroke-width="4"/>
<line y1="-0.5" x2="207.762" y2="-0.5" transform="matrix(-0.500497 0.865738 0.865738 0.500497 350.33 239.092)" stroke="black"/>
</g>
</svg>
