<svg width="655" height="764" viewBox="0 0 655 764" fill="none" xmlns="http://www.w3.org/2000/svg">
<mask id="mask0_2_20" style="mask-type:alpha" maskUnits="userSpaceOnUse" x="0" y="65" width="571" height="699">
<path d="M0.433377 635.568L167.545 763.798L570.998 65.0001L0.433377 635.568Z" fill="white"/>
</mask>
<g mask="url(#mask0_2_20)">
<path d="M0.433377 635.568L167.545 763.798L570.998 65.0001L0.433377 635.568Z" fill="#5B027A"/>
<circle cx="536.5" cy="536.5" r="534.5" transform="matrix(0.793353 0.608761 0.608761 -0.793353 -341.078 370.996)" fill="#21520B" stroke="black" stroke-width="4"/>
<circle cx="536.5" cy="536.5" r="534.5" transform="matrix(0.793353 0.608761 0.608761 -0.793353 -322.206 346.403)" fill="#D71818" stroke="black" stroke-width="4"/>
<circle cx="358.5" cy="358.5" r="356.5" transform="matrix(0.793353 0.608761 0.608761 -0.793353 -105.872 353.582)" fill="#C0E040" stroke="black" stroke-width="4"/>
<circle cx="536.5" cy="536.5" r="534.5" transform="matrix(0.793353 0.608761 0.608761 -0.793353 -180.365 161.551)" fill="#FFC805" stroke="black" stroke-width="4"/>
<path d="M253.289 612.248C230.08 581.841 216.079 556.217 211.13 534.58C188.956 535.4 160.59 528.512 125.226 513.971C94.4361 545.212 71.878 600.216 106.923 670.35C143.12 677.036 172.839 674.877 196.928 664.87C220.842 654.936 239.4 637.186 253.289 612.248Z" fill="#670D16" stroke="#222222" stroke-width="4"/>
<path d="M237.688 592.34C221.256 570.744 211.233 552.44 207.58 536.89C191.621 537.386 171.356 532.446 146.256 522.171C124.358 544.58 108.385 583.8 133.199 633.789C159.086 638.512 180.302 636.915 197.482 629.762C214.489 622.681 227.732 610.074 237.688 592.34Z" fill="#EDE70F" stroke="#222222" stroke-width="4"/>
<circle cx="578.5" cy="578.5" r="576.5" transform="matrix(0.793353 0.608761 0.608761 -0.793353 -248.385 181.204)" fill="#FF9B04" stroke="black" stroke-width="4"/>
<path d="M210.924 533.645C145.584 402.662 196.153 362.038 221.971 358.092L379.462 478.939C380.063 502.803 359.665 561.614 210.924 533.645Z" fill="#21520B" stroke="black" stroke-width="4"/>
<path d="M222.491 518.571C157.15 387.588 207.719 346.964 233.538 343.019L391.028 463.866C391.629 487.729 371.232 546.54 222.491 518.571Z" fill="white" stroke="black" stroke-width="4"/>
<circle cx="326.5" cy="326.5" r="324.5" transform="matrix(0.793353 0.608761 0.608761 -0.793353 -13.7605 289.391)" fill="#FFFA36" stroke="black" stroke-width="4"/>
<rect x="2.80423" y="-0.369184" width="166" height="166" transform="matrix(0.793353 0.608761 0.608761 -0.793353 332.557 278.621)" fill="#FFC805" stroke="black" stroke-width="4"/>
<path d="M451.653 293.471C458.905 272.959 444.886 221.599 436.97 198.484L569.123 68.3196C526.944 151.917 444.4 313.984 451.653 293.471Z" fill="#9A7B0F" stroke="black" stroke-width="4"/>
<path d="M390.368 132.391L334.055 224.501L426.165 280.814L390.368 132.391Z" fill="#A81F2D" stroke="black" stroke-width="4"/>
<mask id="path-16-inside-1_2_20" fill="white">
<path d="M427.173 434.249C434.328 424.924 439.576 414.282 442.618 402.929C445.66 391.576 446.436 379.735 444.902 368.083C443.368 356.43 439.554 345.193 433.677 335.015C427.801 324.836 419.977 315.915 410.652 308.76C401.328 301.605 390.685 296.356 379.332 293.314C367.979 290.272 356.139 289.496 344.486 291.03C332.833 292.565 321.597 296.379 311.418 302.255C301.239 308.132 292.318 315.956 285.163 325.281L305.777 341.098C310.855 334.481 317.186 328.928 324.41 324.758C331.633 320.587 339.608 317.88 347.877 316.791C356.147 315.703 364.55 316.253 372.607 318.412C380.664 320.571 388.217 324.296 394.835 329.374C401.452 334.451 407.005 340.783 411.175 348.006C415.346 355.23 418.053 363.204 419.141 371.474C420.23 379.744 419.679 388.147 417.52 396.204C415.362 404.261 411.637 411.814 406.559 418.431L427.173 434.249Z"/>
</mask>
<path d="M427.173 434.249C434.328 424.924 439.576 414.282 442.618 402.929C445.66 391.576 446.436 379.735 444.902 368.083C443.368 356.43 439.554 345.193 433.677 335.015C427.801 324.836 419.977 315.915 410.652 308.76C401.328 301.605 390.685 296.356 379.332 293.314C367.979 290.272 356.139 289.496 344.486 291.03C332.833 292.565 321.597 296.379 311.418 302.255C301.239 308.132 292.318 315.956 285.163 325.281L305.777 341.098C310.855 334.481 317.186 328.928 324.41 324.758C331.633 320.587 339.608 317.88 347.877 316.791C356.147 315.703 364.55 316.253 372.607 318.412C380.664 320.571 388.217 324.296 394.835 329.374C401.452 334.451 407.005 340.783 411.175 348.006C415.346 355.23 418.053 363.204 419.141 371.474C420.23 379.744 419.679 388.147 417.52 396.204C415.362 404.261 411.637 411.814 406.559 418.431L427.173 434.249Z" fill="#21520B" stroke="black" stroke-width="8" mask="url(#path-16-inside-1_2_20)"/>
<path d="M501.494 281.318C506.84 260.228 488.183 210.365 478.186 188.07L597.883 46.3669C563.526 133.471 496.148 302.407 501.494 281.318Z" fill="#FFD700" style="mix-blend-mode:overlay"/>
<path d="M501.494 281.318C506.84 260.228 488.183 210.365 478.186 188.07L597.883 46.3669C563.526 133.471 496.148 302.407 501.494 281.318Z" stroke="black" stroke-width="4"/>
<circle cx="37" cy="37" r="35" transform="matrix(0.793353 0.608761 0.608761 -0.793353 513.387 78.7755)" fill="#FFC805" stroke="black" stroke-width="4"/>
<circle cx="37" cy="37" r="35" transform="matrix(0.793353 0.608761 0.608761 -0.793353 527.998 59.735)" fill="#670D16" stroke="black" stroke-width="4"/>
<path d="M322.68 378.018C323.684 350.427 290.455 325.56 257.046 353.494C275.382 313.994 242.762 288.333 216.371 296.444C189.98 304.554 190.118 336.801 196.266 360.427C202.79 385.6 200.842 414.142 198.605 429.656C213.012 423.48 240.077 414.212 266.081 413.998C290.501 413.828 321.677 405.608 322.68 378.018Z" fill="#5B027A" stroke="black" stroke-width="4"/>
<line y1="-0.5" x2="207.762" y2="-0.5" transform="matrix(0.500498 -0.865738 -0.865738 -0.500498 304.669 524.907)" stroke="black"/>
</g>
</svg>
