<svg width="314" height="821" viewBox="0 0 314 821" fill="none" xmlns="http://www.w3.org/2000/svg">
<mask id="mask0_2_10" style="mask-type:alpha" maskUnits="userSpaceOnUse" x="0" y="14" width="210" height="807">
<path d="M0.163824 793.409L209.002 820.903L209.004 14L0.163824 793.409Z" fill="white"/>
</mask>
<g mask="url(#mask0_2_10)">
<path d="M0.163824 793.409L209.002 820.903L209.004 14L0.163824 793.409Z" fill="#5B027A"/>
<circle cx="536.5" cy="536.5" r="534.5" transform="matrix(0.991445 0.130526 0.130526 -0.991445 -427.879 735.039)" fill="#21520B" stroke="black" stroke-width="4"/>
<circle cx="536.5" cy="536.5" r="534.5" transform="matrix(0.991445 0.130526 0.130526 -0.991445 -423.833 704.304)" fill="#D71818" stroke="black" stroke-width="4"/>
<circle cx="358.5" cy="358.5" r="356.5" transform="matrix(0.991445 0.130526 0.130526 -0.991445 -232.892 602.354)" fill="#C0E040" stroke="black" stroke-width="4"/>
<circle cx="536.5" cy="536.5" r="534.5" transform="matrix(0.991445 0.130526 0.130526 -0.991445 -393.42 473.297)" fill="#FFC805" stroke="black" stroke-width="4"/>
<path d="M207.483 646.785C172.18 632.057 147.243 616.866 132.139 600.602C113.345 612.399 85.3353 620.617 47.4389 625.707C36.3945 668.157 44.3606 727.071 109.777 770.286C144.468 757.978 169.126 741.248 184.984 720.538C200.727 699.977 207.924 675.327 207.483 646.785Z" fill="#670D16" stroke="#222222" stroke-width="4"/>
<path d="M184.019 637.345C158.99 626.858 141.157 616.018 130.219 604.378C116.646 612.787 96.6256 618.641 69.7515 622.293C61.9919 652.649 67.7689 694.6 114.253 725.486C139.032 716.632 156.608 704.642 167.909 689.857C179.097 675.22 184.263 657.681 184.019 637.345Z" fill="#EDE70F" stroke="#222222" stroke-width="4"/>
<circle cx="578.5" cy="578.5" r="576.5" transform="matrix(0.991445 0.130526 0.130526 -0.991445 -442.501 524.328)" fill="#FF9B04" stroke="black" stroke-width="4"/>
<path d="M131.493 599.895C9.41486 519.131 32.8966 458.665 53.2835 442.339L250.098 468.25C262.55 488.616 274.291 549.747 131.493 599.895Z" fill="#21520B" stroke="black" stroke-width="4"/>
<path d="M133.973 581.058C11.8948 500.294 35.3766 439.828 55.7635 423.502L252.578 449.413C265.03 469.779 276.771 530.909 133.973 581.058Z" fill="white" stroke="black" stroke-width="4"/>
<circle cx="326.5" cy="326.5" r="324.5" transform="matrix(0.991445 0.130526 0.130526 -0.991445 -185.217 500.708)" fill="#FFFA36" stroke="black" stroke-width="4"/>
<rect x="2.24394" y="-1.72184" width="166" height="166" transform="matrix(0.991445 0.130526 0.130526 -0.991445 110.05 316.954)" fill="#FFC805" stroke="black" stroke-width="4"/>
<path d="M219.883 271.535C215.907 250.144 178.086 212.675 159.673 196.614L209.039 17.8125C214.31 111.299 223.859 292.925 219.883 271.535Z" fill="#9A7B0F" stroke="black" stroke-width="4"/>
<path d="M86.2689 162.678L83.5551 270.603L191.481 273.317L86.2689 162.678Z" fill="#A81F2D" stroke="black" stroke-width="4"/>
<mask id="path-16-inside-1_2_10" fill="white">
<path d="M269.072 405.691C270.606 394.039 269.83 382.198 266.788 370.845C263.746 359.492 258.497 348.85 251.342 339.525C244.187 330.201 235.266 322.377 225.087 316.5C214.909 310.623 203.672 306.809 192.019 305.275C180.367 303.741 168.526 304.517 157.173 307.559C145.82 310.601 135.178 315.849 125.853 323.004C116.529 330.159 108.705 339.081 102.828 349.259C96.9514 359.438 93.1371 370.675 91.603 382.327L117.364 385.719C118.453 377.449 121.16 369.475 125.33 362.251C129.501 355.027 135.053 348.696 141.671 343.618C148.288 338.54 155.841 334.816 163.898 332.657C171.955 330.498 180.358 329.947 188.628 331.036C196.898 332.125 204.872 334.832 212.096 339.002C219.319 343.173 225.651 348.725 230.729 355.343C235.806 361.96 239.531 369.513 241.69 377.57C243.849 385.627 244.399 394.03 243.311 402.3L269.072 405.691Z"/>
</mask>
<path d="M269.072 405.691C270.606 394.039 269.83 382.198 266.788 370.845C263.746 359.492 258.497 348.85 251.342 339.525C244.187 330.201 235.266 322.377 225.087 316.5C214.909 310.623 203.672 306.809 192.019 305.275C180.367 303.741 168.526 304.517 157.173 307.559C145.82 310.601 135.178 315.849 125.853 323.004C116.529 330.159 108.705 339.081 102.828 349.259C96.9514 359.438 93.1371 370.675 91.603 382.327L117.364 385.719C118.453 377.449 121.16 369.475 125.33 362.251C129.501 355.027 135.053 348.696 141.671 343.618C148.288 338.54 155.841 334.816 163.898 332.657C171.955 330.498 180.358 329.947 188.628 331.036C196.898 332.125 204.872 334.832 212.096 339.002C219.319 343.173 225.651 348.725 230.729 355.343C235.806 361.96 239.531 369.513 241.69 377.57C243.849 385.627 244.399 394.03 243.311 402.3L269.072 405.691Z" fill="#21520B" stroke="black" stroke-width="8" mask="url(#path-16-inside-1_2_10)"/>
<path d="M256.97 236.089C251.055 215.151 209.966 181.298 190.161 166.988L222.97 -15.5791C236.768 77.034 262.885 257.026 256.97 236.089Z" fill="#FFD700" style="mix-blend-mode:overlay"/>
<path d="M256.97 236.089C251.055 215.151 209.966 181.298 190.161 166.988L222.97 -15.5791C236.768 77.034 262.885 257.026 256.97 236.089Z" stroke="black" stroke-width="4"/>
<circle cx="37" cy="37" r="35" transform="matrix(0.991445 0.130526 0.130526 -0.991445 165.999 54.7353)" fill="#FFC805" stroke="black" stroke-width="4"/>
<circle cx="37" cy="37" r="35" transform="matrix(0.991445 0.130526 0.130526 -0.991445 169.131 30.9406)" fill="#670D16" stroke="black" stroke-width="4"/>
<path d="M150.463 409.24C137.536 384.844 96.3263 379.923 81.3602 420.82C77.4888 377.443 36.4091 371.531 17.6091 391.75C-1.19081 411.969 15.0519 439.827 32.1892 457.213C50.4254 475.752 63.0096 501.444 68.8296 515.998C78.2183 503.446 97.0233 481.887 119.436 468.699C140.499 456.343 163.389 433.636 150.463 409.24Z" fill="#5B027A" stroke="black" stroke-width="4"/>
<line y1="-0.5" x2="207.762" y2="-0.5" transform="matrix(0.000574709 -1 -1 -0.000574709 208.309 545.456)" stroke="black"/>
</g>
</svg>
