<svg width="655" height="764" viewBox="0 0 655 764" fill="none" xmlns="http://www.w3.org/2000/svg">
<mask id="mask0_2_28" style="mask-type:alpha" maskUnits="userSpaceOnUse" x="0" y="0" width="571" height="700">
<path d="M0.4324 128.434L167.544 0.20488L570.997 699.002L0.4324 128.434Z" fill="white"/>
</mask>
<g mask="url(#mask0_2_28)">
<path d="M0.4324 128.434L167.544 0.20488L570.997 699.002L0.4324 128.434Z" fill="#5B027A"/>
<circle cx="411.156" cy="492.04" r="534.5" transform="rotate(-37.5 411.156 492.04)" fill="#21520B" stroke="black" stroke-width="4"/>
<circle cx="430.027" cy="516.634" r="534.5" transform="rotate(-37.5 430.027 516.634)" fill="#D71818" stroke="black" stroke-width="4"/>
<circle cx="396.785" cy="476.597" r="356.5" transform="rotate(-37.5 396.785 476.597)" fill="#C0E040" stroke="black" stroke-width="4"/>
<circle cx="571.869" cy="701.485" r="534.5" transform="rotate(-37.5 571.869 701.485)" fill="#FFC805" stroke="black" stroke-width="4"/>
<path d="M253.288 151.755C230.079 182.161 216.078 207.786 211.129 229.423C188.955 228.603 160.589 235.491 125.225 250.031C94.4351 218.791 71.877 163.787 106.922 93.6524C143.119 86.9666 172.838 89.1255 196.927 99.1324C220.841 109.067 239.399 126.816 253.288 151.755Z" fill="#670D16" stroke="#222222" stroke-width="4"/>
<path d="M237.687 171.663C221.255 193.258 211.232 211.563 207.579 227.112C191.62 226.616 171.355 231.557 146.255 241.832C124.357 219.422 108.384 180.203 133.198 130.213C159.085 125.491 180.301 127.087 197.481 134.241C214.488 141.322 227.731 153.928 237.687 171.663Z" fill="#EDE70F" stroke="#222222" stroke-width="4"/>
<circle cx="562.737" cy="689.585" r="576.5" transform="rotate(-37.5 562.737 689.585)" fill="#FF9B04" stroke="black" stroke-width="4"/>
<path d="M210.924 230.358C145.583 361.34 196.152 401.964 221.97 405.91L379.461 285.063C380.062 261.2 359.664 202.389 210.924 230.358Z" fill="#21520B" stroke="black" stroke-width="4"/>
<path d="M222.49 245.431C157.149 376.414 207.718 417.038 233.537 420.984L391.027 300.137C391.628 276.273 371.231 217.462 222.49 245.431Z" fill="white" stroke="black" stroke-width="4"/>
<circle cx="444.029" cy="534.881" r="324.5" transform="rotate(-37.5 444.029 534.881)" fill="#FFFA36" stroke="black" stroke-width="4"/>
<rect x="334.556" y="483.381" width="166" height="166" transform="rotate(-37.5 334.556 483.381)" fill="#FFC805" stroke="black" stroke-width="4"/>
<path d="M451.652 470.531C458.904 491.044 444.885 542.403 436.969 565.519L569.122 695.683C526.943 612.085 444.4 450.018 451.652 470.531Z" fill="#9A7B0F" stroke="black" stroke-width="4"/>
<path d="M390.367 631.611L334.054 539.502L426.164 483.189L390.367 631.611Z" fill="#A81F2D" stroke="black" stroke-width="4"/>
<mask id="path-16-inside-1_2_28" fill="white">
<path d="M427.172 329.754C434.327 339.078 439.575 349.721 442.617 361.074C445.659 372.426 446.435 384.267 444.901 395.92C443.367 407.573 439.553 418.809 433.676 428.988C427.8 439.166 419.976 448.088 410.651 455.243C401.327 462.398 390.684 467.646 379.331 470.688C367.978 473.73 356.138 474.506 344.485 472.972C332.832 471.438 321.596 467.624 311.417 461.747C301.238 455.87 292.317 448.046 285.162 438.722L305.776 422.904C310.854 429.522 317.185 435.074 324.409 439.245C331.632 443.415 339.607 446.122 347.876 447.211C356.146 448.3 364.549 447.749 372.606 445.59C380.663 443.431 388.216 439.707 394.834 434.629C401.451 429.551 407.004 423.22 411.174 415.996C415.345 408.773 418.052 400.798 419.14 392.528C420.229 384.259 419.678 375.855 417.519 367.798C415.361 359.742 411.636 352.189 406.558 345.571L427.172 329.754Z"/>
</mask>
<path d="M427.172 329.754C434.327 339.078 439.575 349.721 442.617 361.074C445.659 372.426 446.435 384.267 444.901 395.92C443.367 407.573 439.553 418.809 433.676 428.988C427.8 439.166 419.976 448.088 410.651 455.243C401.327 462.398 390.684 467.646 379.331 470.688C367.978 473.73 356.138 474.506 344.485 472.972C332.832 471.438 321.596 467.624 311.417 461.747C301.238 455.87 292.317 448.046 285.162 438.722L305.776 422.904C310.854 429.522 317.185 435.074 324.409 439.245C331.632 443.415 339.607 446.122 347.876 447.211C356.146 448.3 364.549 447.749 372.606 445.59C380.663 443.431 388.216 439.707 394.834 434.629C401.451 429.551 407.004 423.22 411.174 415.996C415.345 408.773 418.052 400.798 419.14 392.528C420.229 384.259 419.678 375.855 417.519 367.798C415.361 359.742 411.636 352.189 406.558 345.571L427.172 329.754Z" fill="#21520B" stroke="black" stroke-width="8" mask="url(#path-16-inside-1_2_28)"/>
<path d="M501.493 482.685C506.839 503.775 488.182 553.637 478.185 575.932L597.882 717.636C563.525 630.531 496.147 461.595 501.493 482.685Z" fill="#FFD700" style="mix-blend-mode:overlay"/>
<path d="M501.493 482.685C506.839 503.775 488.182 553.637 478.185 575.932L597.882 717.636C563.525 630.531 496.147 461.595 501.493 482.685Z" stroke="black" stroke-width="4"/>
<circle cx="565.265" cy="692.057" r="35" transform="rotate(-37.5 565.265 692.057)" fill="#FFC805" stroke="black" stroke-width="4"/>
<circle cx="579.875" cy="711.097" r="35" transform="rotate(-37.5 579.875 711.097)" fill="#670D16" stroke="black" stroke-width="4"/>
<path d="M322.679 385.985C323.683 413.575 290.454 438.442 257.045 410.508C275.381 450.009 242.761 475.669 216.37 467.559C189.979 459.449 190.117 427.201 196.265 403.576C202.789 378.403 200.841 349.86 198.604 334.346C213.011 340.522 240.076 349.791 266.08 350.005C290.5 350.174 321.676 358.394 322.679 385.985Z" fill="#5B027A" stroke="black" stroke-width="4"/>
<line x1="305.101" y1="238.845" x2="409.085" y2="418.712" stroke="black"/>
</g>
</svg>
