<svg width="764" height="655" viewBox="0 0 764 655" fill="none" xmlns="http://www.w3.org/2000/svg">
<mask id="mask0_2_25" style="mask-type:alpha" maskUnits="userSpaceOnUse" x="65" y="84" width="699" height="571">
<path d="M635.568 654.565L763.798 487.453L65.0001 84.0001L635.568 654.565Z" fill="white"/>
</mask>
<g mask="url(#mask0_2_25)">
<path d="M635.568 654.565L763.798 487.453L65.0001 84.0001L635.568 654.565Z" fill="#5B027A"/>
<circle cx="536.5" cy="536.5" r="534.5" transform="matrix(0.608761 -0.793353 -0.793353 -0.608761 370.996 996.076)" fill="#21520B" stroke="black" stroke-width="4"/>
<circle cx="536.5" cy="536.5" r="534.5" transform="matrix(0.608761 -0.793353 -0.793353 -0.608761 346.402 977.205)" fill="#D71818" stroke="black" stroke-width="4"/>
<circle cx="358.5" cy="358.5" r="356.5" transform="matrix(0.608761 -0.793353 -0.793353 -0.608761 353.582 760.871)" fill="#C0E040" stroke="black" stroke-width="4"/>
<circle cx="536.5" cy="536.5" r="534.5" transform="matrix(0.608761 -0.793353 -0.793353 -0.608761 161.551 835.363)" fill="#FFC805" stroke="black" stroke-width="4"/>
<path d="M612.248 401.71C581.841 424.919 556.217 438.92 534.58 443.868C535.4 466.043 528.512 494.409 513.972 529.773C545.212 560.562 600.216 583.121 670.35 548.076C677.036 511.879 674.877 482.159 664.87 458.071C654.936 434.157 637.186 415.599 612.248 401.71Z" fill="#670D16" stroke="#222222" stroke-width="4"/>
<path d="M592.34 417.31C570.744 433.743 552.439 443.766 536.89 447.419C537.386 463.377 532.446 483.643 522.171 508.742C544.58 530.64 583.8 546.613 633.789 521.799C638.512 495.913 636.915 474.697 629.762 457.517C622.681 440.51 610.074 427.267 592.34 417.31Z" fill="#EDE70F" stroke="#222222" stroke-width="4"/>
<circle cx="578.5" cy="578.5" r="576.5" transform="matrix(0.608761 -0.793353 -0.793353 -0.608761 181.204 903.384)" fill="#FF9B04" stroke="black" stroke-width="4"/>
<path d="M533.645 444.074C402.662 509.415 362.038 458.846 358.093 433.027L478.939 275.537C502.803 274.936 561.614 295.333 533.645 444.074Z" fill="#21520B" stroke="black" stroke-width="4"/>
<path d="M518.571 432.508C387.588 497.848 346.964 447.28 343.019 421.461L463.866 263.97C487.729 263.369 546.54 283.767 518.571 432.508Z" fill="white" stroke="black" stroke-width="4"/>
<circle cx="326.5" cy="326.5" r="324.5" transform="matrix(0.608761 -0.793353 -0.793353 -0.608761 289.391 668.759)" fill="#FFFA36" stroke="black" stroke-width="4"/>
<rect x="-0.369184" y="-2.80423" width="166" height="166" transform="matrix(0.608761 -0.793353 -0.793353 -0.608761 278.621 318.442)" fill="#FFC805" stroke="black" stroke-width="4"/>
<path d="M293.471 203.346C272.959 196.094 221.599 210.113 198.484 218.029L68.3196 85.8757C151.917 128.054 313.984 210.598 293.471 203.346Z" fill="#9A7B0F" stroke="black" stroke-width="4"/>
<path d="M132.391 264.63L224.501 320.943L280.814 228.834L132.391 264.63Z" fill="#A81F2D" stroke="black" stroke-width="4"/>
<mask id="path-16-inside-1_2_25" fill="white">
<path d="M434.249 227.825C424.924 220.671 414.282 215.422 402.929 212.38C391.576 209.338 379.735 208.562 368.083 210.096C356.43 211.63 345.193 215.445 335.015 221.321C324.836 227.198 315.915 235.022 308.76 244.346C301.605 253.671 296.356 264.313 293.314 275.666C290.272 287.019 289.496 298.86 291.03 310.513C292.564 322.165 296.379 333.402 302.255 343.581C308.132 353.759 315.956 362.681 325.281 369.836L341.098 349.222C334.481 344.144 328.928 337.813 324.758 330.589C320.587 323.365 317.88 315.391 316.791 307.121C315.703 298.851 316.253 290.448 318.412 282.391C320.571 274.334 324.296 266.782 329.373 260.164C334.451 253.547 340.783 247.994 348.006 243.823C355.23 239.653 363.204 236.946 371.474 235.857C379.744 234.769 388.147 235.319 396.204 237.478C404.261 239.637 411.814 243.362 418.431 248.439L434.249 227.825Z"/>
</mask>
<path d="M434.249 227.825C424.924 220.671 414.282 215.422 402.929 212.38C391.576 209.338 379.735 208.562 368.083 210.096C356.43 211.63 345.193 215.445 335.015 221.321C324.836 227.198 315.915 235.022 308.76 244.346C301.605 253.671 296.356 264.313 293.314 275.666C290.272 287.019 289.496 298.86 291.03 310.513C292.564 322.165 296.379 333.402 302.255 343.581C308.132 353.759 315.956 362.681 325.281 369.836L341.098 349.222C334.481 344.144 328.928 337.813 324.758 330.589C320.587 323.365 317.88 315.391 316.791 307.121C315.703 298.851 316.253 290.448 318.412 282.391C320.571 274.334 324.296 266.782 329.373 260.164C334.451 253.547 340.783 247.994 348.006 243.823C355.23 239.653 363.204 236.946 371.474 235.857C379.744 234.769 388.147 235.319 396.204 237.478C404.261 239.637 411.814 243.362 418.431 248.439L434.249 227.825Z" fill="#21520B" stroke="black" stroke-width="8" mask="url(#path-16-inside-1_2_25)"/>
<path d="M281.318 153.504C260.228 148.158 210.365 166.815 188.07 176.812L46.3669 57.1156C133.471 91.4727 302.407 158.85 281.318 153.504Z" fill="#FFD700" style="mix-blend-mode:overlay"/>
<path d="M281.318 153.504C260.228 148.158 210.365 166.815 188.07 176.812L46.3669 57.1156C133.471 91.4727 302.407 158.85 281.318 153.504Z" stroke="black" stroke-width="4"/>
<circle cx="37" cy="37" r="35" transform="matrix(0.608761 -0.793353 -0.793353 -0.608761 78.7755 141.611)" fill="#FFC805" stroke="black" stroke-width="4"/>
<circle cx="37" cy="37" r="35" transform="matrix(0.608761 -0.793353 -0.793353 -0.608761 59.735 127.001)" fill="#670D16" stroke="black" stroke-width="4"/>
<path d="M378.018 332.318C350.427 331.315 325.56 364.543 353.494 397.952C313.994 379.617 288.333 412.237 296.444 438.627C304.554 465.018 336.801 464.881 360.426 458.732C385.6 452.209 414.142 454.157 429.656 456.393C423.48 441.987 414.212 414.921 413.997 388.917C413.828 364.498 405.608 333.322 378.018 332.318Z" fill="#5B027A" stroke="black" stroke-width="4"/>
<line y1="-0.5" x2="207.762" y2="-0.5" transform="matrix(-0.865738 -0.500498 -0.500498 0.865738 524.907 350.33)" stroke="black"/>
</g>
</svg>
