<svg width="821" height="502" viewBox="0 0 821 502" fill="none" xmlns="http://www.w3.org/2000/svg">
<mask id="mask0_2_17" style="mask-type:alpha" maskUnits="userSpaceOnUse" x="41" y="0" width="780" height="405">
<path d="M820.409 195.16L739.801 0.553494L41.001 404.003L820.409 195.16Z" fill="white"/>
</mask>
<g mask="url(#mask0_2_17)">
<path d="M820.409 195.16L739.801 0.553494L41.001 404.003L820.409 195.16Z" fill="#5B027A"/>
<circle cx="536.5" cy="536.5" r="534.5" transform="matrix(-0.382683 -0.92388 -0.92388 0.382683 983.88 595.041)" fill="#21520B" stroke="black" stroke-width="4"/>
<circle cx="536.5" cy="536.5" r="534.5" transform="matrix(-0.382683 -0.92388 -0.92388 0.382683 955.24 606.904)" fill="#D71818" stroke="black" stroke-width="4"/>
<circle cx="358.5" cy="358.5" r="356.5" transform="matrix(-0.382683 -0.92388 -0.92388 0.382683 771.479 492.519)" fill="#C0E040" stroke="black" stroke-width="4"/>
<circle cx="536.5" cy="536.5" r="534.5" transform="matrix(-0.382683 -0.92388 -0.92388 0.382683 739.976 696.069)" fill="#FFC805" stroke="black" stroke-width="4"/>
<path d="M589.769 88.9275C594.666 126.865 593.979 156.057 587.446 177.269C607.06 187.647 628.181 207.795 651.537 238.069C693.822 226.409 740.86 190.053 745.577 111.793C717.573 87.9042 690.755 74.914 664.891 71.536C639.213 68.1824 614.267 74.2747 589.769 88.9275Z" fill="#670D16" stroke="#222222" stroke-width="4"/>
<path d="M593.326 113.969C596.759 140.887 596.287 161.751 591.676 177.044C605.744 184.594 620.825 199.005 637.424 220.453C667.593 211.995 701.036 186.016 704.541 130.317C684.484 113.284 665.312 104.059 646.857 101.664C628.588 99.2927 610.816 103.588 593.326 113.969Z" fill="#EDE70F" stroke="#222222" stroke-width="4"/>
<circle cx="578.5" cy="578.5" r="576.5" transform="matrix(-0.382683 -0.92388 -0.92388 0.382683 808.71 713.059)" fill="#FF9B04" stroke="black" stroke-width="4"/>
<path d="M587.157 178.182C578.252 324.287 514.146 334.184 489.814 324.691L413.846 141.29C425.257 120.323 472.328 79.5897 587.157 178.182Z" fill="#21520B" stroke="black" stroke-width="4"/>
<path d="M569.603 185.453C560.698 331.558 496.592 341.455 472.26 331.962L396.292 148.561C407.704 127.594 454.774 86.8606 569.603 185.453Z" fill="white" stroke="black" stroke-width="4"/>
<circle cx="326.5" cy="326.5" r="324.5" transform="matrix(-0.382683 -0.92388 -0.92388 0.382683 659.613 502.055)" fill="#FFFA36" stroke="black" stroke-width="4"/>
<rect x="-2.61313" y="-1.08239" width="166" height="166" transform="matrix(-0.382683 -0.92388 -0.92388 0.382683 351.576 333.491)" fill="#FFC805" stroke="black" stroke-width="4"/>
<path d="M258.593 265.814C242.056 279.953 228.517 331.441 223.815 355.418L44.2851 402.066C122.611 350.758 275.13 251.676 258.593 265.814Z" fill="#9A7B0F" stroke="black" stroke-width="4"/>
<path d="M231.127 435.956L325.95 384.343L274.338 289.52L231.127 435.956Z" fill="#A81F2D" stroke="black" stroke-width="4"/>
<mask id="path-16-inside-1_2_17" fill="white">
<path d="M350.182 156.137C339.323 160.635 329.457 167.228 321.146 175.538C312.835 183.849 306.243 193.716 301.745 204.574C297.247 215.433 294.932 227.071 294.932 238.824C294.932 250.578 297.247 262.216 301.745 273.075C306.243 283.933 312.835 293.8 321.146 302.11C329.457 310.421 339.323 317.014 350.182 321.512C361.04 326.009 372.679 328.324 384.432 328.324C396.185 328.324 407.824 326.009 418.682 321.512L408.739 297.506C401.033 300.698 392.773 302.341 384.432 302.341C376.091 302.341 367.831 300.698 360.125 297.506C352.419 294.314 345.417 289.636 339.519 283.738C333.621 277.839 328.942 270.837 325.75 263.131C322.558 255.425 320.915 247.166 320.915 238.824C320.915 230.483 322.558 222.224 325.75 214.518C328.942 206.811 333.621 199.809 339.519 193.911C345.417 188.013 352.419 183.335 360.125 180.143L350.182 156.137Z"/>
</mask>
<path d="M350.182 156.137C339.323 160.635 329.457 167.228 321.146 175.538C312.835 183.849 306.243 193.716 301.745 204.574C297.247 215.433 294.932 227.071 294.932 238.824C294.932 250.578 297.247 262.216 301.745 273.075C306.243 283.933 312.835 293.8 321.146 302.11C329.457 310.421 339.323 317.014 350.182 321.512C361.04 326.009 372.679 328.324 384.432 328.324C396.185 328.324 407.824 326.009 418.682 321.512L408.739 297.506C401.033 300.698 392.773 302.341 384.432 302.341C376.091 302.341 367.831 300.698 360.125 297.506C352.419 294.314 345.417 289.636 339.519 283.738C333.621 277.839 328.942 270.837 325.75 263.131C322.558 255.425 320.915 247.166 320.915 238.824C320.915 230.483 322.558 222.224 325.75 214.518C328.942 206.811 333.621 199.809 339.519 193.911C345.417 188.013 352.419 183.335 360.125 180.143L350.182 156.137Z" fill="#21520B" stroke="black" stroke-width="8" mask="url(#path-16-inside-1_2_17)"/>
<path d="M209.352 251.419C194.178 267.01 185.404 319.521 182.914 343.827L8.40182 406.698C81.7081 348.442 224.527 235.828 209.352 251.419Z" fill="#FFD700" style="mix-blend-mode:overlay"/>
<path d="M209.352 251.419C194.178 267.01 185.404 319.521 182.914 343.827L8.40182 406.698C81.7081 348.442 224.527 235.828 209.352 251.419Z" stroke="black" stroke-width="4"/>
<circle cx="37" cy="37" r="35" transform="matrix(-0.382683 -0.92388 -0.92388 0.382683 97.7812 420.879)" fill="#FFC805" stroke="black" stroke-width="4"/>
<circle cx="37" cy="37" r="35" transform="matrix(-0.382683 -0.92388 -0.92388 0.382683 75.6082 430.063)" fill="#670D16" stroke="black" stroke-width="4"/>
<path d="M412.56 257.081C397.895 280.474 414.238 318.623 457.139 311.136C421.509 336.177 436.929 374.709 463.839 380.881C490.749 387.053 506.754 359.057 513.242 335.523C520.179 310.46 536.137 286.716 545.831 274.398C530.267 272.544 502.193 267.038 479.566 254.221C458.333 242.158 427.224 233.689 412.56 257.081Z" fill="#5B027A" stroke="black" stroke-width="4"/>
<line y1="-0.5" x2="207.762" y2="-0.5" transform="matrix(-0.866313 0.499502 0.499502 0.866313 501.603 138.877)" stroke="black"/>
</g>
</svg>
