<svg width="764" height="655" viewBox="0 0 764 655" fill="none" xmlns="http://www.w3.org/2000/svg">
<mask id="mask0_2_22" style="mask-type:alpha" maskUnits="userSpaceOnUse" x="0" y="84" width="700" height="571">
<path d="M128.434 654.568L0.204832 487.456L699.002 84.0031L128.434 654.568Z" fill="white"/>
</mask>
<g mask="url(#mask0_2_22)">
<path d="M128.434 654.568L0.204832 487.456L699.002 84.0031L128.434 654.568Z" fill="#5B027A"/>
<circle cx="492.04" cy="243.845" r="534.5" transform="rotate(-127.5 492.04 243.845)" fill="#21520B" stroke="black" stroke-width="4"/>
<circle cx="516.633" cy="224.973" r="534.5" transform="rotate(-127.5 516.633 224.973)" fill="#D71818" stroke="black" stroke-width="4"/>
<circle cx="476.597" cy="258.215" r="356.5" transform="rotate(-127.5 476.597 258.215)" fill="#C0E040" stroke="black" stroke-width="4"/>
<circle cx="701.485" cy="83.1317" r="534.5" transform="rotate(-127.5 701.485 83.1317)" fill="#FFC805" stroke="black" stroke-width="4"/>
<path d="M151.754 401.713C182.161 424.922 207.786 438.922 229.423 443.871C228.603 466.046 235.491 494.412 250.031 529.776C218.791 560.565 163.787 583.123 93.6524 548.079C86.9665 511.882 89.1255 482.162 99.1324 458.074C109.067 434.16 126.816 415.601 151.754 401.713Z" fill="#670D16" stroke="#222222" stroke-width="4"/>
<path d="M171.663 417.313C193.258 433.745 211.563 443.769 227.112 447.422C226.616 463.38 231.557 483.646 241.832 508.745C219.422 530.643 180.203 546.616 130.213 521.802C125.491 495.916 127.087 474.7 134.24 457.52C141.322 440.513 153.928 427.27 171.663 417.313Z" fill="#EDE70F" stroke="#222222" stroke-width="4"/>
<circle cx="689.585" cy="92.2631" r="576.5" transform="rotate(-127.5 689.585 92.2631)" fill="#FF9B04" stroke="black" stroke-width="4"/>
<path d="M230.358 444.077C361.34 509.418 401.964 458.849 405.91 433.03L285.063 275.54C261.2 274.939 202.389 295.336 230.358 444.077Z" fill="#21520B" stroke="black" stroke-width="4"/>
<path d="M245.431 432.511C376.414 497.851 417.038 447.283 420.984 421.464L300.137 263.973C276.273 263.372 217.462 283.77 245.431 432.511Z" fill="white" stroke="black" stroke-width="4"/>
<circle cx="534.881" cy="210.972" r="324.5" transform="rotate(-127.5 534.881 210.972)" fill="#FFFA36" stroke="black" stroke-width="4"/>
<rect x="483.381" y="320.445" width="166" height="166" transform="rotate(-127.5 483.381 320.445)" fill="#FFC805" stroke="black" stroke-width="4"/>
<path d="M470.531 203.349C491.044 196.097 542.403 210.116 565.519 218.032L695.683 85.8787C612.085 128.057 450.019 210.601 470.531 203.349Z" fill="#9A7B0F" stroke="black" stroke-width="4"/>
<path d="M631.611 264.633L539.502 320.946L483.188 228.837L631.611 264.633Z" fill="#A81F2D" stroke="black" stroke-width="4"/>
<mask id="path-16-inside-1_2_22" fill="white">
<path d="M329.754 227.828C339.078 220.673 349.721 215.425 361.073 212.383C372.426 209.341 384.267 208.565 395.92 210.099C407.573 211.633 418.809 215.448 428.988 221.324C439.166 227.201 448.088 235.025 455.243 244.349C462.398 253.674 467.646 264.316 470.688 275.669C473.73 287.022 474.506 298.863 472.972 310.516C471.438 322.168 467.624 333.405 461.747 343.584C455.87 353.762 448.046 362.684 438.722 369.839L422.904 349.225C429.522 344.147 435.074 337.816 439.245 330.592C443.415 323.368 446.122 315.394 447.211 307.124C448.3 298.854 447.749 290.451 445.59 282.394C443.431 274.337 439.707 266.784 434.629 260.167C429.551 253.55 423.22 247.997 415.996 243.826C408.773 239.656 400.798 236.949 392.528 235.86C384.259 234.771 375.855 235.322 367.798 237.481C359.742 239.64 352.189 243.365 345.571 248.442L329.754 227.828Z"/>
</mask>
<path d="M329.754 227.828C339.078 220.673 349.721 215.425 361.073 212.383C372.426 209.341 384.267 208.565 395.92 210.099C407.573 211.633 418.809 215.448 428.988 221.324C439.166 227.201 448.088 235.025 455.243 244.349C462.398 253.674 467.646 264.316 470.688 275.669C473.73 287.022 474.506 298.863 472.972 310.516C471.438 322.168 467.624 333.405 461.747 343.584C455.87 353.762 448.046 362.684 438.722 369.839L422.904 349.225C429.522 344.147 435.074 337.816 439.245 330.592C443.415 323.368 446.122 315.394 447.211 307.124C448.3 298.854 447.749 290.451 445.59 282.394C443.431 274.337 439.707 266.784 434.629 260.167C429.551 253.55 423.22 247.997 415.996 243.826C408.773 239.656 400.798 236.949 392.528 235.86C384.259 234.771 375.855 235.322 367.798 237.481C359.742 239.64 352.189 243.365 345.571 248.442L329.754 227.828Z" fill="#21520B" stroke="black" stroke-width="8" mask="url(#path-16-inside-1_2_22)"/>
<path d="M482.685 153.507C503.775 148.161 553.637 166.818 575.932 176.815L717.636 57.1186C630.531 91.4757 461.595 158.853 482.685 153.507Z" fill="#FFD700" style="mix-blend-mode:overlay"/>
<path d="M482.685 153.507C503.775 148.161 553.637 166.818 575.932 176.815L717.636 57.1186C630.531 91.4757 461.595 158.853 482.685 153.507Z" stroke="black" stroke-width="4"/>
<circle cx="692.057" cy="89.7358" r="35" transform="rotate(-127.5 692.057 89.7358)" fill="#FFC805" stroke="black" stroke-width="4"/>
<circle cx="711.097" cy="75.1255" r="35" transform="rotate(-127.5 711.097 75.1255)" fill="#670D16" stroke="black" stroke-width="4"/>
<path d="M385.985 332.321C413.575 331.318 438.442 364.546 410.508 397.955C450.009 379.62 475.669 412.24 467.559 438.63C459.448 465.021 427.201 464.884 403.576 458.735C378.403 452.212 349.86 454.16 334.346 456.396C340.522 441.99 349.791 414.924 350.005 388.92C350.174 364.501 358.394 333.325 385.985 332.321Z" fill="#5B027A" stroke="black" stroke-width="4"/>
<line x1="238.845" y1="349.9" x2="418.712" y2="245.916" stroke="black"/>
</g>
</svg>
