<svg width="821" height="502" viewBox="0 0 821 502" fill="none" xmlns="http://www.w3.org/2000/svg">
<mask id="mask0_2_30" style="mask-type:alpha" maskUnits="userSpaceOnUse" x="0" y="0" width="781" height="404">
<path d="M0.593608 195.152L81.202 0.546195L780.001 403.996L0.593608 195.152Z" fill="white"/>
</mask>
<g mask="url(#mask0_2_30)">
<path d="M0.593608 195.152L81.202 0.546195L780.001 403.996L0.593608 195.152Z" fill="#5B027A"/>
<circle cx="538.093" cy="304.682" r="534.5" transform="rotate(-67.5 538.093 304.682)" fill="#21520B" stroke="black" stroke-width="4"/>
<circle cx="566.733" cy="316.545" r="534.5" transform="rotate(-67.5 566.733 316.545)" fill="#D71818" stroke="black" stroke-width="4"/>
<circle cx="517.926" cy="298.493" r="356.5" transform="rotate(-67.5 517.926 298.493)" fill="#C0E040" stroke="black" stroke-width="4"/>
<circle cx="781.997" cy="405.71" r="534.5" transform="rotate(-67.5 781.997 405.71)" fill="#FFC805" stroke="black" stroke-width="4"/>
<path d="M231.233 88.9202C226.337 126.858 227.024 156.05 233.557 177.262C213.943 187.64 192.821 207.787 169.465 238.062C127.181 226.402 80.1425 190.046 75.425 111.785C103.43 87.8969 130.247 74.9067 156.112 71.5287C181.789 68.1751 206.736 74.2674 231.233 88.9202Z" fill="#670D16" stroke="#222222" stroke-width="4"/>
<path d="M227.677 113.962C224.244 140.88 224.715 161.744 229.327 177.037C215.258 184.586 200.178 198.998 183.578 220.446C153.409 211.987 119.967 186.009 116.462 130.31C136.519 113.277 155.69 104.051 174.145 101.656C192.415 99.2854 210.187 103.581 227.677 113.962Z" fill="#EDE70F" stroke="#222222" stroke-width="4"/>
<circle cx="768.139" cy="399.97" r="576.5" transform="rotate(-67.5 768.139 399.97)" fill="#FF9B04" stroke="black" stroke-width="4"/>
<path d="M233.846 178.175C242.751 324.279 306.856 334.177 331.189 324.684L407.156 141.282C395.745 120.316 348.675 79.5824 233.846 178.175Z" fill="#21520B" stroke="black" stroke-width="4"/>
<path d="M251.4 185.446C260.304 331.55 324.41 341.448 348.743 331.955L424.71 148.553C413.299 127.587 366.228 86.8533 251.4 185.446Z" fill="white" stroke="black" stroke-width="4"/>
<circle cx="587.983" cy="325.347" r="324.5" transform="rotate(-67.5 587.983 325.347)" fill="#FFFA36" stroke="black" stroke-width="4"/>
<rect x="467.427" y="335.484" width="166" height="166" transform="rotate(-67.5 467.427 335.484)" fill="#FFC805" stroke="black" stroke-width="4"/>
<path d="M562.409 265.807C578.946 279.945 592.485 331.434 597.187 355.41L776.717 402.059C698.391 350.751 545.872 251.669 562.409 265.807Z" fill="#9A7B0F" stroke="black" stroke-width="4"/>
<path d="M589.875 435.949L495.052 384.336L546.665 289.513L589.875 435.949Z" fill="#A81F2D" stroke="black" stroke-width="4"/>
<mask id="path-16-inside-1_2_30" fill="white">
<path d="M470.821 156.13C481.679 160.628 491.546 167.22 499.856 175.531C508.167 183.842 514.76 193.708 519.258 204.567C523.755 215.426 526.07 227.064 526.07 238.817C526.07 250.57 523.755 262.209 519.258 273.067C514.76 283.926 508.167 293.792 499.856 302.103C491.546 310.414 481.679 317.007 470.821 321.504C459.962 326.002 448.324 328.317 436.57 328.317C424.817 328.317 413.179 326.002 402.32 321.504L412.264 297.499C419.97 300.691 428.229 302.334 436.57 302.334C444.912 302.334 453.171 300.691 460.877 297.499C468.583 294.307 475.585 289.628 481.484 283.73C487.382 277.832 492.06 270.83 495.252 263.124C498.444 255.418 500.087 247.158 500.087 238.817C500.087 230.476 498.444 222.217 495.252 214.51C492.06 206.804 487.382 199.802 481.484 193.904C475.585 188.006 468.583 183.327 460.877 180.135L470.821 156.13Z"/>
</mask>
<path d="M470.821 156.13C481.679 160.628 491.546 167.22 499.856 175.531C508.167 183.842 514.76 193.708 519.258 204.567C523.755 215.426 526.07 227.064 526.07 238.817C526.07 250.57 523.755 262.209 519.258 273.067C514.76 283.926 508.167 293.792 499.856 302.103C491.546 310.414 481.679 317.007 470.821 321.504C459.962 326.002 448.324 328.317 436.57 328.317C424.817 328.317 413.179 326.002 402.32 321.504L412.264 297.499C419.97 300.691 428.229 302.334 436.57 302.334C444.912 302.334 453.171 300.691 460.877 297.499C468.583 294.307 475.585 289.628 481.484 283.73C487.382 277.832 492.06 270.83 495.252 263.124C498.444 255.418 500.087 247.158 500.087 238.817C500.087 230.476 498.444 222.217 495.252 214.51C492.06 206.804 487.382 199.802 481.484 193.904C475.585 188.006 468.583 183.327 460.877 180.135L470.821 156.13Z" fill="#21520B" stroke="black" stroke-width="8" mask="url(#path-16-inside-1_2_30)"/>
<path d="M611.65 251.412C626.825 267.003 635.599 319.514 638.089 343.82L812.601 406.691C739.294 348.435 596.475 235.82 611.65 251.412Z" fill="#FFD700" style="mix-blend-mode:overlay"/>
<path d="M611.65 251.412C626.825 267.003 635.599 319.514 638.089 343.82L812.601 406.691C739.294 348.435 596.475 235.82 611.65 251.412Z" stroke="black" stroke-width="4"/>
<circle cx="771.564" cy="400.847" r="35" transform="rotate(-67.5 771.564 400.847)" fill="#FFC805" stroke="black" stroke-width="4"/>
<circle cx="793.737" cy="410.032" r="35" transform="rotate(-67.5 793.737 410.032)" fill="#670D16" stroke="black" stroke-width="4"/>
<path d="M408.443 257.074C423.107 280.466 406.764 318.616 363.863 311.129C399.493 336.17 384.073 374.702 357.163 380.874C330.253 387.045 314.248 359.05 307.761 335.515C300.823 310.453 284.865 286.709 275.171 274.391C290.736 272.536 318.81 267.031 341.437 254.214C362.669 242.151 393.778 233.681 408.443 257.074Z" fill="#5B027A" stroke="black" stroke-width="4"/>
<line x1="319.649" y1="138.437" x2="499.636" y2="242.214" stroke="black"/>
</g>
</svg>
