<svg width="314" height="821" viewBox="0 0 314 821" fill="none" xmlns="http://www.w3.org/2000/svg">
<mask id="mask0_2_7" style="mask-type:alpha" maskUnits="userSpaceOnUse" x="0" y="0" width="209" height="807">
<path d="M0.159918 27.5912L208.998 0.09709L209 807L0.159918 27.5912Z" fill="white"/>
</mask>
<g mask="url(#mask0_2_7)">
<path d="M0.159918 27.5912L208.998 0.09709L209 807L0.159918 27.5912Z" fill="#5B027A"/>
<circle cx="174.054" cy="547.844" r="534.5" transform="rotate(-7.5 174.054 547.844)" fill="#21520B" stroke="black" stroke-width="4"/>
<circle cx="178.101" cy="578.579" r="534.5" transform="rotate(-7.5 178.101 578.579)" fill="#D71818" stroke="black" stroke-width="4"/>
<circle cx="169.33" cy="527.285" r="356.5" transform="rotate(-7.5 169.33 527.285)" fill="#C0E040" stroke="black" stroke-width="4"/>
<circle cx="208.513" cy="809.586" r="534.5" transform="rotate(-7.5 208.513 809.586)" fill="#FFC805" stroke="black" stroke-width="4"/>
<path d="M207.479 174.215C172.176 188.943 147.239 204.134 132.135 220.398C113.341 208.601 85.3314 200.383 47.435 195.293C36.3905 152.844 44.3567 93.9293 109.773 50.7137C144.464 63.022 169.122 79.7517 184.98 100.462C200.723 121.023 207.92 145.673 207.479 174.215Z" fill="#670D16" stroke="#222222" stroke-width="4"/>
<path d="M184.015 183.656C158.986 194.142 141.153 204.982 130.215 216.622C116.642 208.213 96.6217 202.359 69.7476 198.707C61.988 168.351 67.765 126.4 114.249 95.5145C139.028 104.368 156.604 116.359 167.906 131.143C179.094 145.78 184.259 163.319 184.015 183.656Z" fill="#EDE70F" stroke="#222222" stroke-width="4"/>
<circle cx="206.555" cy="794.714" r="576.5" transform="rotate(-7.5 206.555 794.714)" fill="#FF9B04" stroke="black" stroke-width="4"/>
<path d="M131.489 221.105C9.41095 301.869 32.8927 362.335 53.2796 378.661L250.094 352.75C262.546 332.384 274.287 271.253 131.489 221.105Z" fill="#21520B" stroke="black" stroke-width="4"/>
<path d="M133.969 239.942C11.8909 320.706 35.3726 381.172 55.7596 397.499L252.574 371.587C265.026 351.221 276.767 290.091 133.969 239.942Z" fill="white" stroke="black" stroke-width="4"/>
<circle cx="181.103" cy="601.382" r="324.5" transform="rotate(-7.5 181.103 601.382)" fill="#FFFA36" stroke="black" stroke-width="4"/>
<rect x="112.046" y="502.046" width="166" height="166" transform="rotate(-7.5 112.046 502.046)" fill="#FFC805" stroke="black" stroke-width="4"/>
<path d="M219.879 549.465C215.903 570.856 178.083 608.325 159.669 624.386L209.035 803.188C214.306 709.701 223.855 528.075 219.879 549.465Z" fill="#9A7B0F" stroke="black" stroke-width="4"/>
<path d="M86.2648 658.323L83.551 550.397L191.477 547.683L86.2648 658.323Z" fill="#A81F2D" stroke="black" stroke-width="4"/>
<mask id="path-16-inside-1_2_7" fill="white">
<path d="M269.068 415.309C270.602 426.961 269.826 438.802 266.784 450.155C263.742 461.508 258.493 472.15 251.339 481.475C244.184 490.799 235.262 498.623 225.083 504.5C214.905 510.377 203.668 514.191 192.015 515.725C180.363 517.259 168.522 516.483 157.169 513.441C145.816 510.399 135.174 505.151 125.849 497.996C116.525 490.841 108.701 481.919 102.824 471.741C96.9475 461.562 93.1332 450.326 91.5991 438.673L117.36 435.281C118.449 443.551 121.156 451.525 125.326 458.749C129.497 465.973 135.049 472.304 141.667 477.382C148.284 482.46 155.837 486.184 163.894 488.343C171.951 490.502 180.354 491.053 188.624 489.964C196.894 488.875 204.868 486.168 212.092 481.998C219.315 477.827 225.647 472.275 230.725 465.657C235.802 459.04 239.527 451.487 241.686 443.43C243.845 435.373 244.395 426.97 243.307 418.7L269.068 415.309Z"/>
</mask>
<path d="M269.068 415.309C270.602 426.961 269.826 438.802 266.784 450.155C263.742 461.508 258.493 472.15 251.339 481.475C244.184 490.799 235.262 498.623 225.083 504.5C214.905 510.377 203.668 514.191 192.015 515.725C180.363 517.259 168.522 516.483 157.169 513.441C145.816 510.399 135.174 505.151 125.849 497.996C116.525 490.841 108.701 481.919 102.824 471.741C96.9475 461.562 93.1332 450.326 91.5991 438.673L117.36 435.281C118.449 443.551 121.156 451.525 125.326 458.749C129.497 465.973 135.049 472.304 141.667 477.382C148.284 482.46 155.837 486.184 163.894 488.343C171.951 490.502 180.354 491.053 188.624 489.964C196.894 488.875 204.868 486.168 212.092 481.998C219.315 477.827 225.647 472.275 230.725 465.657C235.802 459.04 239.527 451.487 241.686 443.43C243.845 435.373 244.395 426.97 243.307 418.7L269.068 415.309Z" fill="#21520B" stroke="black" stroke-width="8" mask="url(#path-16-inside-1_2_7)"/>
<path d="M256.966 584.912C251.051 605.849 209.962 639.702 190.157 654.012L222.966 836.579C236.764 743.966 262.881 563.974 256.966 584.912Z" fill="#FFD700" style="mix-blend-mode:overlay"/>
<path d="M256.966 584.912C251.051 605.849 209.962 639.702 190.157 654.012L222.966 836.579C236.764 743.966 262.881 563.974 256.966 584.912Z" stroke="black" stroke-width="4"/>
<circle cx="207.508" cy="798.119" r="35" transform="rotate(-7.5 207.508 798.119)" fill="#FFC805" stroke="black" stroke-width="4"/>
<circle cx="210.64" cy="821.913" r="35" transform="rotate(-7.5 210.64 821.913)" fill="#670D16" stroke="black" stroke-width="4"/>
<path d="M150.459 411.76C137.533 436.156 96.3223 441.077 81.3562 400.18C77.4849 443.557 36.4052 449.469 17.6052 429.25C-1.19473 409.031 15.048 381.173 32.1853 363.787C50.4215 345.248 63.0056 319.556 68.8257 305.002C78.2144 317.554 97.0194 339.114 119.432 352.301C140.495 364.657 163.385 387.364 150.459 411.76Z" fill="#5B027A" stroke="black" stroke-width="4"/>
<line x1="208.805" y1="275.544" x2="208.924" y2="483.306" stroke="black"/>
</g>
</svg>
