<svg width="821" height="314" viewBox="0 0 821 314" fill="none" xmlns="http://www.w3.org/2000/svg">
<mask id="mask0_2_14" style="mask-type:alpha" maskUnits="userSpaceOnUse" x="0" y="105" width="808" height="209">
<path d="M27.5917 313.841L0.0976065 105.003L807.001 105.001L27.5917 313.841Z" fill="white"/>
</mask>
<g mask="url(#mask0_2_14)">
<path d="M27.5917 313.841L0.0976065 105.003L807.001 105.001L27.5917 313.841Z" fill="#5B027A"/>
<circle cx="547.845" cy="139.946" r="534.5" transform="rotate(-97.5 547.845 139.946)" fill="#21520B" stroke="black" stroke-width="4"/>
<circle cx="578.579" cy="135.9" r="534.5" transform="rotate(-97.5 578.579 135.9)" fill="#D71818" stroke="black" stroke-width="4"/>
<circle cx="527.285" cy="144.67" r="356.5" transform="rotate(-97.5 527.285 144.67)" fill="#C0E040" stroke="black" stroke-width="4"/>
<circle cx="809.586" cy="105.487" r="534.5" transform="rotate(-97.5 809.586 105.487)" fill="#FFC805" stroke="black" stroke-width="4"/>
<path d="M174.215 106.521C188.944 141.824 204.135 166.762 220.399 181.866C208.601 200.66 200.383 228.669 195.294 266.566C152.844 277.61 93.9298 269.644 50.7142 204.227C63.0225 169.537 79.7522 144.878 100.463 129.02C121.023 113.277 145.674 106.08 174.215 106.521Z" fill="#670D16" stroke="#222222" stroke-width="4"/>
<path d="M183.656 129.986C194.142 155.015 204.983 172.847 216.622 183.785C208.214 197.358 202.359 217.379 198.708 244.253C168.352 252.012 126.4 246.236 95.515 199.751C104.369 174.972 116.359 157.397 131.144 146.095C145.78 134.907 163.319 129.741 183.656 129.986Z" fill="#EDE70F" stroke="#222222" stroke-width="4"/>
<circle cx="794.715" cy="107.445" r="576.5" transform="rotate(-97.5 794.715 107.445)" fill="#FF9B04" stroke="black" stroke-width="4"/>
<path d="M221.105 182.512C301.869 304.59 362.335 281.108 378.662 260.721L352.75 63.9066C332.384 51.4545 271.254 39.7137 221.105 182.512Z" fill="#21520B" stroke="black" stroke-width="4"/>
<path d="M239.943 180.032C320.707 302.11 381.173 278.628 397.499 258.241L371.588 61.4266C351.222 48.9746 290.091 37.2337 239.943 180.032Z" fill="white" stroke="black" stroke-width="4"/>
<circle cx="601.383" cy="132.898" r="324.5" transform="rotate(-97.5 601.383 132.898)" fill="#FFFA36" stroke="black" stroke-width="4"/>
<rect x="502.047" y="201.955" width="166" height="166" transform="rotate(-97.5 502.047 201.955)" fill="#FFC805" stroke="black" stroke-width="4"/>
<path d="M549.466 94.1216C570.856 98.0974 608.325 135.918 624.386 154.331L803.188 104.965C709.701 99.6943 528.075 90.1459 549.466 94.1216Z" fill="#9A7B0F" stroke="black" stroke-width="4"/>
<path d="M658.323 227.736L550.397 230.449L547.683 122.524L658.323 227.736Z" fill="#A81F2D" stroke="black" stroke-width="4"/>
<mask id="path-16-inside-1_2_14" fill="white">
<path d="M415.309 44.9328C426.962 43.3987 438.803 44.1748 450.156 47.2168C461.508 50.2587 472.151 55.507 481.475 62.662C490.8 69.817 498.624 78.7385 504.5 88.9171C510.377 99.0958 514.191 110.332 515.726 121.985C517.26 133.638 516.484 145.479 513.442 156.831C510.4 168.184 505.151 178.827 497.996 188.151C490.841 197.476 481.92 205.3 471.741 211.176C461.563 217.053 450.326 220.867 438.673 222.401L435.282 196.64C443.552 195.552 451.526 192.845 458.75 188.674C465.973 184.504 472.305 178.951 477.382 172.334C482.46 165.716 486.185 158.163 488.344 150.106C490.503 142.05 491.053 133.646 489.965 125.377C488.876 117.107 486.169 109.132 481.998 101.909C477.828 94.6851 472.275 88.3537 465.658 83.2759C459.04 78.1981 451.487 74.4735 443.431 72.3147C435.374 70.1558 426.97 69.605 418.701 70.6938L415.309 44.9328Z"/>
</mask>
<path d="M415.309 44.9328C426.962 43.3987 438.803 44.1748 450.156 47.2168C461.508 50.2587 472.151 55.507 481.475 62.662C490.8 69.817 498.624 78.7385 504.5 88.9171C510.377 99.0958 514.191 110.332 515.726 121.985C517.26 133.638 516.484 145.479 513.442 156.831C510.4 168.184 505.151 178.827 497.996 188.151C490.841 197.476 481.92 205.3 471.741 211.176C461.563 217.053 450.326 220.867 438.673 222.401L435.282 196.64C443.552 195.552 451.526 192.845 458.75 188.674C465.973 184.504 472.305 178.951 477.382 172.334C482.46 165.716 486.185 158.163 488.344 150.106C490.503 142.05 491.053 133.646 489.965 125.377C488.876 117.107 486.169 109.132 481.998 101.909C477.828 94.6851 472.275 88.3537 465.658 83.2759C459.04 78.1981 451.487 74.4735 443.431 72.3147C435.374 70.1558 426.97 69.605 418.701 70.6938L415.309 44.9328Z" fill="#21520B" stroke="black" stroke-width="8" mask="url(#path-16-inside-1_2_14)"/>
<path d="M584.912 57.0346C605.849 62.9497 639.703 104.038 654.012 123.843L836.58 91.0348C743.967 77.2367 563.975 51.1194 584.912 57.0346Z" fill="#FFD700" style="mix-blend-mode:overlay"/>
<path d="M584.912 57.0346C605.849 62.9497 639.703 104.038 654.012 123.843L836.58 91.0348C743.967 77.2367 563.975 51.1194 584.912 57.0346Z" stroke="black" stroke-width="4"/>
<circle cx="798.119" cy="106.493" r="35" transform="rotate(-97.5 798.119 106.493)" fill="#FFC805" stroke="black" stroke-width="4"/>
<circle cx="821.914" cy="103.36" r="35" transform="rotate(-97.5 821.914 103.36)" fill="#670D16" stroke="black" stroke-width="4"/>
<path d="M411.76 163.542C436.156 176.468 441.077 217.678 400.181 232.644C443.557 236.516 449.47 277.595 429.251 296.395C409.032 315.195 381.173 298.953 363.788 281.815C345.249 263.579 319.556 250.995 305.002 245.175C317.554 235.786 339.114 216.981 352.301 194.568C364.658 173.505 387.364 150.615 411.76 163.542Z" fill="#5B027A" stroke="black" stroke-width="4"/>
<line x1="275.544" y1="105.196" x2="483.306" y2="105.076" stroke="black"/>
</g>
</svg>
