<svg width="821" height="502" viewBox="0 0 821 502" fill="none" xmlns="http://www.w3.org/2000/svg">
<mask id="mask0_2_18" style="mask-type:alpha" maskUnits="userSpaceOnUse" x="0" y="97" width="780" height="405">
<path d="M0.591655 306.841L81.2 501.447L779.999 97.9968L0.591655 306.841Z" fill="white"/>
</mask>
<g mask="url(#mask0_2_18)">
<path d="M0.591655 306.841L81.2 501.447L779.999 97.9968L0.591655 306.841Z" fill="#5B027A"/>
<circle cx="536.5" cy="536.5" r="534.5" transform="matrix(0.382683 0.92388 0.92388 -0.382683 -162.88 -93.0408)" fill="#21520B" stroke="black" stroke-width="4"/>
<circle cx="536.5" cy="536.5" r="534.5" transform="matrix(0.382683 0.92388 0.92388 -0.382683 -134.24 -104.904)" fill="#D71818" stroke="black" stroke-width="4"/>
<circle cx="358.5" cy="358.5" r="356.5" transform="matrix(0.382683 0.92388 0.92388 -0.382683 49.5215 9.48076)" fill="#C0E040" stroke="black" stroke-width="4"/>
<circle cx="536.5" cy="536.5" r="534.5" transform="matrix(0.382683 0.92388 0.92388 -0.382683 81.0244 -194.069)" fill="#FFC805" stroke="black" stroke-width="4"/>
<path d="M231.231 413.073C226.335 375.135 227.022 345.943 233.555 324.731C213.941 314.353 192.819 294.205 169.463 263.931C127.179 275.591 80.1406 311.947 75.4231 390.207C103.428 414.096 130.245 427.086 156.11 430.464C181.787 433.818 206.734 427.725 231.231 413.073Z" fill="#670D16" stroke="#222222" stroke-width="4"/>
<path d="M227.675 388.031C224.242 361.113 224.713 340.249 229.325 324.956C215.256 317.406 200.176 302.995 183.576 281.547C153.407 290.005 119.965 315.984 116.46 371.683C136.517 388.716 155.688 397.941 174.143 400.336C192.413 402.707 210.185 398.412 227.675 388.031Z" fill="#EDE70F" stroke="#222222" stroke-width="4"/>
<circle cx="578.5" cy="578.5" r="576.5" transform="matrix(0.382683 0.92388 0.92388 -0.382683 12.2905 -211.059)" fill="#FF9B04" stroke="black" stroke-width="4"/>
<path d="M233.844 323.818C242.749 177.713 306.854 167.816 331.187 177.309L407.154 360.71C395.743 381.677 348.673 422.41 233.844 323.818Z" fill="#21520B" stroke="black" stroke-width="4"/>
<path d="M251.398 316.547C260.302 170.442 324.408 160.545 348.741 170.038L424.708 353.439C413.297 374.406 366.226 415.139 251.398 316.547Z" fill="white" stroke="black" stroke-width="4"/>
<circle cx="326.5" cy="326.5" r="324.5" transform="matrix(0.382683 0.92388 0.92388 -0.382683 161.388 -0.0544462)" fill="#FFFA36" stroke="black" stroke-width="4"/>
<rect x="2.61313" y="1.08239" width="166" height="166" transform="matrix(0.382683 0.92388 0.92388 -0.382683 465.425 164.509)" fill="#FFC805" stroke="black" stroke-width="4"/>
<path d="M562.407 236.186C578.944 222.047 592.483 170.559 597.185 146.582L776.715 99.9338C698.389 151.242 545.87 250.324 562.407 236.186Z" fill="#9A7B0F" stroke="black" stroke-width="4"/>
<path d="M589.873 66.0441L495.05 117.657L546.663 212.48L589.873 66.0441Z" fill="#A81F2D" stroke="black" stroke-width="4"/>
<mask id="path-16-inside-1_2_18" fill="white">
<path d="M470.819 345.863C481.677 341.365 491.544 334.773 499.855 326.462C508.165 318.151 514.758 308.285 519.256 297.426C523.753 286.567 526.068 274.929 526.068 263.176C526.068 251.422 523.753 239.784 519.256 228.926C514.758 218.067 508.165 208.2 499.855 199.89C491.544 191.579 481.677 184.986 470.819 180.488C459.96 175.991 448.322 173.676 436.568 173.676C424.815 173.676 413.177 175.991 402.318 180.488L412.262 204.494C419.968 201.302 428.227 199.659 436.568 199.659C444.91 199.659 453.169 201.302 460.875 204.494C468.581 207.686 475.584 212.365 481.482 218.263C487.38 224.161 492.058 231.163 495.25 238.869C498.442 246.575 500.085 254.835 500.085 263.176C500.085 271.517 498.442 279.776 495.25 287.483C492.058 295.189 487.38 302.191 481.482 308.089C475.584 313.987 468.581 318.666 460.875 321.858L470.819 345.863Z"/>
</mask>
<path d="M470.819 345.863C481.677 341.365 491.544 334.773 499.855 326.462C508.165 318.151 514.758 308.285 519.256 297.426C523.753 286.567 526.068 274.929 526.068 263.176C526.068 251.422 523.753 239.784 519.256 228.926C514.758 218.067 508.165 208.2 499.855 199.89C491.544 191.579 481.677 184.986 470.819 180.488C459.96 175.991 448.322 173.676 436.568 173.676C424.815 173.676 413.177 175.991 402.318 180.488L412.262 204.494C419.968 201.302 428.227 199.659 436.568 199.659C444.91 199.659 453.169 201.302 460.875 204.494C468.581 207.686 475.584 212.365 481.482 218.263C487.38 224.161 492.058 231.163 495.25 238.869C498.442 246.575 500.085 254.835 500.085 263.176C500.085 271.517 498.442 279.776 495.25 287.483C492.058 295.189 487.38 302.191 481.482 308.089C475.584 313.987 468.581 318.666 460.875 321.858L470.819 345.863Z" fill="#21520B" stroke="black" stroke-width="8" mask="url(#path-16-inside-1_2_18)"/>
<path d="M611.648 250.581C626.823 234.99 635.597 182.479 638.087 158.173L812.599 95.3022C739.292 153.558 596.474 266.172 611.648 250.581Z" fill="#FFD700" style="mix-blend-mode:overlay"/>
<path d="M611.648 250.581C626.823 234.99 635.597 182.479 638.087 158.173L812.599 95.3022C739.292 153.558 596.474 266.172 611.648 250.581Z" stroke="black" stroke-width="4"/>
<circle cx="37" cy="37" r="35" transform="matrix(0.382683 0.92388 0.92388 -0.382683 723.219 81.1212)" fill="#FFC805" stroke="black" stroke-width="4"/>
<circle cx="37" cy="37" r="35" transform="matrix(0.382683 0.92388 0.92388 -0.382683 745.392 71.9368)" fill="#670D16" stroke="black" stroke-width="4"/>
<path d="M408.441 244.919C423.105 221.527 406.762 183.377 363.862 190.864C399.491 165.823 384.072 127.291 357.161 121.119C330.251 114.947 314.246 142.943 307.759 166.477C300.822 191.54 284.863 215.284 275.169 227.602C290.734 229.457 318.808 234.962 341.435 247.779C362.667 259.842 393.777 268.311 408.441 244.919Z" fill="#5B027A" stroke="black" stroke-width="4"/>
<line y1="-0.5" x2="207.762" y2="-0.5" transform="matrix(0.866313 -0.499502 -0.499502 -0.866313 319.398 363.123)" stroke="black"/>
</g>
</svg>
