<svg width="821" height="314" viewBox="0 0 821 314" fill="none" xmlns="http://www.w3.org/2000/svg">
<mask id="mask0_2_15" style="mask-type:alpha" maskUnits="userSpaceOnUse" x="14" y="104" width="807" height="210">
<path d="M793.409 313.837L820.903 104.999L14 104.997L793.409 313.837Z" fill="white"/>
</mask>
<g mask="url(#mask0_2_15)">
<path d="M793.409 313.837L820.903 104.999L14 104.997L793.409 313.837Z" fill="#5B027A"/>
<circle cx="536.5" cy="536.5" r="534.5" transform="matrix(0.130526 -0.991445 -0.991445 -0.130526 735.039 741.88)" fill="#21520B" stroke="black" stroke-width="4"/>
<circle cx="536.5" cy="536.5" r="534.5" transform="matrix(0.130526 -0.991445 -0.991445 -0.130526 704.304 737.833)" fill="#D71818" stroke="black" stroke-width="4"/>
<circle cx="358.5" cy="358.5" r="356.5" transform="matrix(0.130526 -0.991445 -0.991445 -0.130526 602.354 546.893)" fill="#C0E040" stroke="black" stroke-width="4"/>
<circle cx="536.5" cy="536.5" r="534.5" transform="matrix(0.130526 -0.991445 -0.991445 -0.130526 473.297 707.421)" fill="#FFC805" stroke="black" stroke-width="4"/>
<path d="M646.785 106.517C632.057 141.82 616.866 166.758 600.602 181.862C612.399 200.656 620.617 228.665 625.707 266.562C668.156 277.606 727.071 269.64 770.286 204.223C757.978 169.533 741.248 144.874 720.538 129.016C699.977 113.273 675.327 106.076 646.785 106.517Z" fill="#670D16" stroke="#222222" stroke-width="4"/>
<path d="M637.344 129.982C626.858 155.011 616.018 172.843 604.378 183.782C612.787 197.354 618.641 217.375 622.293 244.249C652.649 252.009 694.6 246.232 725.485 199.747C716.632 174.968 704.641 157.393 689.857 146.091C675.22 134.903 657.681 129.737 637.344 129.982Z" fill="#EDE70F" stroke="#222222" stroke-width="4"/>
<circle cx="578.5" cy="578.5" r="576.5" transform="matrix(0.130526 -0.991445 -0.991445 -0.130526 524.328 756.502)" fill="#FF9B04" stroke="black" stroke-width="4"/>
<path d="M599.895 182.508C519.131 304.586 458.666 281.104 442.339 260.717L468.25 63.9026C488.616 51.4506 549.747 39.7097 599.895 182.508Z" fill="#21520B" stroke="black" stroke-width="4"/>
<path d="M581.058 180.028C500.294 302.106 439.828 278.624 423.501 258.237L449.413 61.4226C469.779 48.9706 530.909 37.2297 581.058 180.028Z" fill="white" stroke="black" stroke-width="4"/>
<circle cx="326.5" cy="326.5" r="324.5" transform="matrix(0.130526 -0.991445 -0.991445 -0.130526 500.708 499.217)" fill="#FFFA36" stroke="black" stroke-width="4"/>
<rect x="-1.72184" y="-2.24394" width="166" height="166" transform="matrix(0.130526 -0.991445 -0.991445 -0.130526 316.954 199.951)" fill="#FFC805" stroke="black" stroke-width="4"/>
<path d="M271.535 94.1176C250.144 98.0934 212.675 135.914 196.614 154.327L17.8125 104.961C111.299 99.6902 292.925 90.1419 271.535 94.1176Z" fill="#9A7B0F" stroke="black" stroke-width="4"/>
<path d="M162.678 227.732L270.603 230.445L273.317 122.52L162.678 227.732Z" fill="#A81F2D" stroke="black" stroke-width="4"/>
<mask id="path-16-inside-1_2_15" fill="white">
<path d="M405.691 44.9288C394.039 43.3947 382.198 44.1708 370.845 47.2128C359.492 50.2548 348.85 55.5031 339.525 62.658C330.201 69.813 322.377 78.7345 316.5 88.9131C310.623 99.0918 306.809 110.328 305.275 121.981C303.741 133.634 304.517 145.475 307.559 156.827C310.601 168.18 315.849 178.823 323.004 188.147C330.159 197.472 339.081 205.296 349.259 211.172C359.438 217.049 370.674 220.863 382.327 222.397L385.719 196.636C377.449 195.548 369.475 192.841 362.251 188.67C355.027 184.5 348.696 178.947 343.618 172.33C338.54 165.712 334.816 158.159 332.657 150.102C330.498 142.046 329.947 133.642 331.036 125.373C332.125 117.103 334.832 109.128 339.002 101.905C343.173 94.6811 348.725 88.3497 355.343 83.2719C361.96 78.1942 369.513 74.4695 377.57 72.3107C385.627 70.1518 394.03 69.6011 402.3 70.6898L405.691 44.9288Z"/>
</mask>
<path d="M405.691 44.9288C394.039 43.3947 382.198 44.1708 370.845 47.2128C359.492 50.2548 348.85 55.5031 339.525 62.658C330.201 69.813 322.377 78.7345 316.5 88.9131C310.623 99.0918 306.809 110.328 305.275 121.981C303.741 133.634 304.517 145.475 307.559 156.827C310.601 168.18 315.849 178.823 323.004 188.147C330.159 197.472 339.081 205.296 349.259 211.172C359.438 217.049 370.674 220.863 382.327 222.397L385.719 196.636C377.449 195.548 369.475 192.841 362.251 188.67C355.027 184.5 348.696 178.947 343.618 172.33C338.54 165.712 334.816 158.159 332.657 150.102C330.498 142.046 329.947 133.642 331.036 125.373C332.125 117.103 334.832 109.128 339.002 101.905C343.173 94.6811 348.725 88.3497 355.343 83.2719C361.96 78.1942 369.513 74.4695 377.57 72.3107C385.627 70.1518 394.03 69.6011 402.3 70.6898L405.691 44.9288Z" fill="#21520B" stroke="black" stroke-width="8" mask="url(#path-16-inside-1_2_15)"/>
<path d="M236.088 57.0305C215.151 62.9457 181.298 104.034 166.988 123.839L-15.5791 91.0308C77.034 77.2327 257.026 51.1154 236.088 57.0305Z" fill="#FFD700" style="mix-blend-mode:overlay"/>
<path d="M236.088 57.0305C215.151 62.9457 181.298 104.034 166.988 123.839L-15.5791 91.0308C77.034 77.2327 257.026 51.1154 236.088 57.0305Z" stroke="black" stroke-width="4"/>
<circle cx="37" cy="37" r="35" transform="matrix(0.130526 -0.991445 -0.991445 -0.130526 54.7352 148.002)" fill="#FFC805" stroke="black" stroke-width="4"/>
<circle cx="37" cy="37" r="35" transform="matrix(0.130526 -0.991445 -0.991445 -0.130526 30.9406 144.869)" fill="#670D16" stroke="black" stroke-width="4"/>
<path d="M409.24 163.538C384.844 176.464 379.923 217.674 420.82 232.64C377.443 236.512 371.531 277.591 391.75 296.391C411.969 315.191 439.827 298.949 457.213 281.811C475.752 263.575 501.444 250.991 515.998 245.171C503.446 235.782 481.887 216.977 468.699 194.564C456.343 173.501 433.636 150.611 409.24 163.538Z" fill="#5B027A" stroke="black" stroke-width="4"/>
<line y1="-0.5" x2="207.762" y2="-0.5" transform="matrix(-1 -0.00057465 -0.00057465 1 545.456 105.692)" stroke="black"/>
</g>
</svg>
