<svg width="655" height="764" viewBox="0 0 655 764" fill="none" xmlns="http://www.w3.org/2000/svg">
<mask id="mask0_2_27" style="mask-type:alpha" maskUnits="userSpaceOnUse" x="84" y="64" width="571" height="700">
<path d="M654.568 635.565L487.456 763.795L84.003 64.9972L654.568 635.565Z" fill="white"/>
</mask>
<g mask="url(#mask0_2_27)">
<path d="M654.568 635.565L487.456 763.795L84.003 64.9972L654.568 635.565Z" fill="#5B027A"/>
<circle cx="243.845" cy="271.96" r="534.5" transform="rotate(142.5 243.845 271.96)" fill="#21520B" stroke="black" stroke-width="4"/>
<circle cx="224.973" cy="247.366" r="534.5" transform="rotate(142.5 224.973 247.366)" fill="#D71818" stroke="black" stroke-width="4"/>
<circle cx="258.215" cy="287.403" r="356.5" transform="rotate(142.5 258.215 287.403)" fill="#C0E040" stroke="black" stroke-width="4"/>
<circle cx="83.1316" cy="62.5147" r="534.5" transform="rotate(142.5 83.1316 62.5147)" fill="#FFC805" stroke="black" stroke-width="4"/>
<path d="M401.712 612.245C424.921 581.838 438.922 556.214 443.871 534.577C466.046 535.397 494.412 528.509 529.776 513.969C560.565 545.209 583.123 600.213 548.079 670.347C511.882 677.033 482.162 674.874 458.073 664.867C434.16 654.933 415.601 637.183 401.712 612.245Z" fill="#670D16" stroke="#222222" stroke-width="4"/>
<path d="M417.313 592.337C433.746 570.741 443.769 552.437 447.422 536.887C463.38 537.383 483.646 532.443 508.745 522.168C530.643 544.577 546.616 583.797 521.802 633.786C495.916 638.509 474.7 636.912 457.52 629.759C440.513 622.678 427.27 610.071 417.313 592.337Z" fill="#EDE70F" stroke="#222222" stroke-width="4"/>
<circle cx="92.2631" cy="74.415" r="576.5" transform="rotate(142.5 92.2631 74.415)" fill="#FF9B04" stroke="black" stroke-width="4"/>
<path d="M444.077 533.642C509.418 402.659 458.849 362.035 433.03 358.09L275.539 478.936C274.939 502.8 295.336 561.611 444.077 533.642Z" fill="#21520B" stroke="black" stroke-width="4"/>
<path d="M432.511 518.568C497.851 387.586 447.283 346.961 421.464 343.016L263.973 463.863C263.372 487.726 283.77 546.537 432.511 518.568Z" fill="white" stroke="black" stroke-width="4"/>
<circle cx="210.971" cy="229.119" r="324.5" transform="rotate(142.5 210.971 229.119)" fill="#FFFA36" stroke="black" stroke-width="4"/>
<rect x="320.445" y="280.618" width="166" height="166" transform="rotate(142.5 320.445 280.618)" fill="#FFC805" stroke="black" stroke-width="4"/>
<path d="M203.349 293.468C196.097 272.956 210.116 221.596 218.032 198.481L85.8786 68.3166C128.057 151.914 210.601 313.981 203.349 293.468Z" fill="#9A7B0F" stroke="black" stroke-width="4"/>
<path d="M264.633 132.388L320.946 224.498L228.837 280.811L264.633 132.388Z" fill="#A81F2D" stroke="black" stroke-width="4"/>
<mask id="path-16-inside-1_2_27" fill="white">
<path d="M227.828 434.246C220.673 424.921 215.425 414.279 212.383 402.926C209.341 391.573 208.565 379.732 210.099 368.08C211.633 356.427 215.448 345.19 221.324 335.012C227.201 324.833 235.025 315.912 244.349 308.757C253.674 301.602 264.316 296.353 275.669 293.311C287.022 290.269 298.863 289.493 310.516 291.027C322.168 292.562 333.405 296.376 343.583 302.253C353.762 308.129 362.684 315.953 369.839 325.278L349.225 341.095C344.147 334.478 337.815 328.925 330.592 324.755C323.368 320.584 315.394 317.877 307.124 316.788C298.854 315.7 290.451 316.25 282.394 318.409C274.337 320.568 266.784 324.293 260.167 329.371C253.549 334.448 247.997 340.78 243.826 348.003C239.656 355.227 236.949 363.201 235.86 371.471C234.771 379.741 235.322 388.144 237.481 396.201C239.64 404.258 243.365 411.811 248.442 418.428L227.828 434.246Z"/>
</mask>
<path d="M227.828 434.246C220.673 424.921 215.425 414.279 212.383 402.926C209.341 391.573 208.565 379.732 210.099 368.08C211.633 356.427 215.448 345.19 221.324 335.012C227.201 324.833 235.025 315.912 244.349 308.757C253.674 301.602 264.316 296.353 275.669 293.311C287.022 290.269 298.863 289.493 310.516 291.027C322.168 292.562 333.405 296.376 343.583 302.253C353.762 308.129 362.684 315.953 369.839 325.278L349.225 341.095C344.147 334.478 337.815 328.925 330.592 324.755C323.368 320.584 315.394 317.877 307.124 316.788C298.854 315.7 290.451 316.25 282.394 318.409C274.337 320.568 266.784 324.293 260.167 329.371C253.549 334.448 247.997 340.78 243.826 348.003C239.656 355.227 236.949 363.201 235.86 371.471C234.771 379.741 235.322 388.144 237.481 396.201C239.64 404.258 243.365 411.811 248.442 418.428L227.828 434.246Z" fill="#21520B" stroke="black" stroke-width="8" mask="url(#path-16-inside-1_2_27)"/>
<path d="M153.507 281.315C148.161 260.225 166.818 210.362 176.815 188.068L57.1185 46.364C91.4756 133.468 158.853 302.405 153.507 281.315Z" fill="#FFD700" style="mix-blend-mode:overlay"/>
<path d="M153.507 281.315C148.161 260.225 166.818 210.362 176.815 188.068L57.1185 46.364C91.4756 133.468 158.853 302.405 153.507 281.315Z" stroke="black" stroke-width="4"/>
<circle cx="89.7358" cy="71.9427" r="35" transform="rotate(142.5 89.7358 71.9427)" fill="#FFC805" stroke="black" stroke-width="4"/>
<circle cx="75.1254" cy="52.9022" r="35" transform="rotate(142.5 75.1254 52.9022)" fill="#670D16" stroke="black" stroke-width="4"/>
<path d="M332.321 378.015C331.318 350.424 364.546 325.557 397.955 353.492C379.62 313.991 412.24 288.331 438.63 296.441C465.021 304.551 464.884 336.799 458.735 360.424C452.212 385.597 454.16 414.139 456.396 429.653C441.99 423.478 414.924 414.209 388.92 413.995C364.501 413.825 333.324 405.605 332.321 378.015Z" fill="#5B027A" stroke="black" stroke-width="4"/>
<line x1="349.9" y1="525.154" x2="245.916" y2="345.287" stroke="black"/>
</g>
</svg>
