<svg width="821" height="314" viewBox="0 0 821 314" fill="none" xmlns="http://www.w3.org/2000/svg">
<mask id="mask0_2_16" style="mask-type:alpha" maskUnits="userSpaceOnUse" x="0" y="0" width="808" height="210">
<path d="M27.5917 0.163885L0.09755 209.002L807.001 209.004L27.5917 0.163885Z" fill="white"/>
</mask>
<g mask="url(#mask0_2_16)">
<path d="M27.5917 0.163885L0.09755 209.002L807.001 209.004L27.5917 0.163885Z" fill="#5B027A"/>
<circle cx="536.5" cy="536.5" r="534.5" transform="matrix(-0.130526 0.991445 0.991445 0.130526 85.9619 -427.879)" fill="#21520B" stroke="black" stroke-width="4"/>
<circle cx="536.5" cy="536.5" r="534.5" transform="matrix(-0.130526 0.991445 0.991445 0.130526 116.697 -423.833)" fill="#D71818" stroke="black" stroke-width="4"/>
<circle cx="358.5" cy="358.5" r="356.5" transform="matrix(-0.130526 0.991445 0.991445 0.130526 218.646 -232.892)" fill="#C0E040" stroke="black" stroke-width="4"/>
<circle cx="536.5" cy="536.5" r="534.5" transform="matrix(-0.130526 0.991445 0.991445 0.130526 347.703 -393.42)" fill="#FFC805" stroke="black" stroke-width="4"/>
<path d="M174.215 207.483C188.944 172.18 204.135 147.243 220.398 132.139C208.601 113.345 200.383 85.3353 195.294 47.4389C152.844 36.3945 93.9298 44.3607 50.7142 109.777C63.0225 144.468 79.7521 169.126 100.463 184.984C121.023 200.727 145.673 207.924 174.215 207.483Z" fill="#670D16" stroke="#222222" stroke-width="4"/>
<path d="M183.656 184.019C194.142 158.99 204.983 141.157 216.622 130.219C208.214 116.646 202.359 96.6257 198.708 69.7516C168.352 61.992 126.4 67.769 95.515 114.253C104.369 139.032 116.359 156.608 131.144 167.91C145.78 179.098 163.319 184.263 183.656 184.019Z" fill="#EDE70F" stroke="#222222" stroke-width="4"/>
<circle cx="578.5" cy="578.5" r="576.5" transform="matrix(-0.130526 0.991445 0.991445 0.130526 296.673 -442.501)" fill="#FF9B04" stroke="black" stroke-width="4"/>
<path d="M221.105 131.493C301.869 9.41495 362.335 32.8967 378.662 53.2836L352.75 250.098C332.384 262.55 271.254 274.291 221.105 131.493Z" fill="#21520B" stroke="black" stroke-width="4"/>
<path d="M239.943 133.973C320.707 11.895 381.173 35.3767 397.499 55.7636L371.588 252.578C351.222 265.03 290.091 276.771 239.943 133.973Z" fill="white" stroke="black" stroke-width="4"/>
<circle cx="326.5" cy="326.5" r="324.5" transform="matrix(-0.130526 0.991445 0.991445 0.130526 320.293 -185.217)" fill="#FFFA36" stroke="black" stroke-width="4"/>
<rect x="1.72184" y="2.24394" width="166" height="166" transform="matrix(-0.130526 0.991445 0.991445 0.130526 500.047 110.05)" fill="#FFC805" stroke="black" stroke-width="4"/>
<path d="M549.466 219.883C570.856 215.907 608.325 178.087 624.386 159.673L803.188 209.039C709.701 214.31 528.075 223.859 549.466 219.883Z" fill="#9A7B0F" stroke="black" stroke-width="4"/>
<path d="M658.323 86.269L550.397 83.5551L547.683 191.481L658.323 86.269Z" fill="#A81F2D" stroke="black" stroke-width="4"/>
<mask id="path-16-inside-1_2_16" fill="white">
<path d="M415.309 269.072C426.962 270.606 438.803 269.83 450.155 266.788C461.508 263.746 472.151 258.498 481.475 251.343C490.8 244.188 498.624 235.266 504.5 225.087C510.377 214.909 514.191 203.672 515.725 192.02C517.26 180.367 516.484 168.526 513.442 157.173C510.4 145.82 505.151 135.178 497.996 125.853C490.841 116.529 481.92 108.705 471.741 102.828C461.563 96.9515 450.326 93.1372 438.673 91.6031L435.282 117.364C443.552 118.453 451.526 121.16 458.75 125.33C465.973 129.501 472.305 135.053 477.382 141.671C482.46 148.288 486.185 155.841 488.344 163.898C490.502 171.955 491.053 180.358 489.965 188.628C488.876 196.898 486.169 204.872 481.998 212.096C477.828 219.319 472.275 225.651 465.658 230.729C459.04 235.806 451.487 239.531 443.431 241.69C435.374 243.849 426.97 244.4 418.701 243.311L415.309 269.072Z"/>
</mask>
<path d="M415.309 269.072C426.962 270.606 438.803 269.83 450.155 266.788C461.508 263.746 472.151 258.498 481.475 251.343C490.8 244.188 498.624 235.266 504.5 225.087C510.377 214.909 514.191 203.672 515.725 192.02C517.26 180.367 516.484 168.526 513.442 157.173C510.4 145.82 505.151 135.178 497.996 125.853C490.841 116.529 481.92 108.705 471.741 102.828C461.563 96.9515 450.326 93.1372 438.673 91.6031L435.282 117.364C443.552 118.453 451.526 121.16 458.75 125.33C465.973 129.501 472.305 135.053 477.382 141.671C482.46 148.288 486.185 155.841 488.344 163.898C490.502 171.955 491.053 180.358 489.965 188.628C488.876 196.898 486.169 204.872 481.998 212.096C477.828 219.319 472.275 225.651 465.658 230.729C459.04 235.806 451.487 239.531 443.431 241.69C435.374 243.849 426.97 244.4 418.701 243.311L415.309 269.072Z" fill="#21520B" stroke="black" stroke-width="8" mask="url(#path-16-inside-1_2_16)"/>
<path d="M584.912 256.97C605.849 251.055 639.703 209.966 654.012 190.161L836.58 222.97C743.967 236.768 563.975 262.885 584.912 256.97Z" fill="#FFD700" style="mix-blend-mode:overlay"/>
<path d="M584.912 256.97C605.849 251.055 639.703 209.966 654.012 190.161L836.58 222.97C743.967 236.768 563.975 262.885 584.912 256.97Z" stroke="black" stroke-width="4"/>
<circle cx="37" cy="37" r="35" transform="matrix(-0.130526 0.991445 0.991445 0.130526 766.265 165.999)" fill="#FFC805" stroke="black" stroke-width="4"/>
<circle cx="37" cy="37" r="35" transform="matrix(-0.130526 0.991445 0.991445 0.130526 790.06 169.132)" fill="#670D16" stroke="black" stroke-width="4"/>
<path d="M411.76 150.463C436.156 137.537 441.077 96.3264 400.181 81.3603C443.557 77.4889 449.47 36.4092 429.251 17.6093C409.032 -1.19069 381.173 15.052 363.788 32.1893C345.249 50.4255 319.556 63.0097 305.002 68.8298C317.554 78.2184 339.114 97.0235 352.301 119.436C364.658 140.5 387.364 163.389 411.76 150.463Z" fill="#5B027A" stroke="black" stroke-width="4"/>
<line y1="-0.5" x2="207.762" y2="-0.5" transform="matrix(1 0.000574739 0.000574739 -1 275.544 208.309)" stroke="black"/>
</g>
</svg>
