<svg width="821" height="314" viewBox="0 0 821 314" fill="none" xmlns="http://www.w3.org/2000/svg">
<mask id="mask0_2_13" style="mask-type:alpha" maskUnits="userSpaceOnUse" x="14" y="0" width="807" height="209">
<path d="M793.409 0.159491L820.903 208.997L14 208.999L793.409 0.159491Z" fill="white"/>
</mask>
<g mask="url(#mask0_2_13)">
<path d="M793.409 0.159491L820.903 208.997L14 208.999L793.409 0.159491Z" fill="#5B027A"/>
<circle cx="273.156" cy="174.054" r="534.5" transform="rotate(82.5 273.156 174.054)" fill="#21520B" stroke="black" stroke-width="4"/>
<circle cx="242.421" cy="178.1" r="534.5" transform="rotate(82.5 242.421 178.1)" fill="#D71818" stroke="black" stroke-width="4"/>
<circle cx="293.715" cy="169.33" r="356.5" transform="rotate(82.5 293.715 169.33)" fill="#C0E040" stroke="black" stroke-width="4"/>
<circle cx="11.4145" cy="208.513" r="534.5" transform="rotate(82.5 11.4145 208.513)" fill="#FFC805" stroke="black" stroke-width="4"/>
<path d="M646.785 207.479C632.057 172.176 616.866 147.238 600.602 132.134C612.399 113.34 620.617 85.3309 625.707 47.4345C668.156 36.3901 727.071 44.3563 770.286 109.773C757.978 144.463 741.248 169.122 720.538 184.98C699.977 200.723 675.327 207.92 646.785 207.479Z" fill="#670D16" stroke="#222222" stroke-width="4"/>
<path d="M637.344 184.014C626.858 158.985 616.018 141.153 604.378 130.215C612.787 116.642 618.641 96.6213 622.293 69.7472C652.649 61.9876 694.6 67.7646 725.485 114.249C716.632 139.028 704.641 156.604 689.857 167.905C675.22 179.093 657.681 184.259 637.344 184.014Z" fill="#EDE70F" stroke="#222222" stroke-width="4"/>
<circle cx="26.2861" cy="206.555" r="576.5" transform="rotate(82.5 26.2861 206.555)" fill="#FF9B04" stroke="black" stroke-width="4"/>
<path d="M599.895 131.488C519.131 9.41051 458.666 32.8922 442.339 53.2792L468.25 250.093C488.616 262.546 549.747 274.286 599.895 131.488Z" fill="#21520B" stroke="black" stroke-width="4"/>
<path d="M581.058 133.968C500.294 11.8905 439.828 35.3722 423.501 55.7592L449.413 252.573C469.779 265.026 530.909 276.766 581.058 133.968Z" fill="white" stroke="black" stroke-width="4"/>
<circle cx="219.618" cy="181.102" r="324.5" transform="rotate(82.5 219.618 181.102)" fill="#FFFA36" stroke="black" stroke-width="4"/>
<rect x="318.954" y="112.045" width="166" height="166" transform="rotate(82.5 318.954 112.045)" fill="#FFC805" stroke="black" stroke-width="4"/>
<path d="M271.535 219.878C250.144 215.903 212.675 178.082 196.614 159.669L17.8125 209.035C111.299 214.306 292.925 223.854 271.535 219.878Z" fill="#9A7B0F" stroke="black" stroke-width="4"/>
<path d="M162.678 86.2644L270.603 83.5506L273.317 191.476L162.678 86.2644Z" fill="#A81F2D" stroke="black" stroke-width="4"/>
<mask id="path-16-inside-1_2_13" fill="white">
<path d="M405.691 269.067C394.039 270.601 382.198 269.825 370.845 266.783C359.492 263.741 348.85 258.493 339.525 251.338C330.201 244.183 322.377 235.262 316.5 225.083C310.623 214.904 306.809 203.668 305.275 192.015C303.741 180.362 304.517 168.521 307.559 157.169C310.601 145.816 315.849 135.173 323.004 125.849C330.159 116.524 339.081 108.7 349.259 102.824C359.438 96.947 370.674 93.1328 382.327 91.5987L385.719 117.36C377.449 118.448 369.475 121.155 362.251 125.326C355.027 129.496 348.696 135.049 343.618 141.666C338.54 148.284 334.816 155.837 332.657 163.894C330.498 171.951 329.947 180.354 331.036 188.624C332.125 196.893 334.832 204.868 339.002 212.091C343.173 219.315 348.725 225.646 355.343 230.724C361.96 235.802 369.513 239.527 377.57 241.685C385.627 243.844 394.03 244.395 402.3 243.306L405.691 269.067Z"/>
</mask>
<path d="M405.691 269.067C394.039 270.601 382.198 269.825 370.845 266.783C359.492 263.741 348.85 258.493 339.525 251.338C330.201 244.183 322.377 235.262 316.5 225.083C310.623 214.904 306.809 203.668 305.275 192.015C303.741 180.362 304.517 168.521 307.559 157.169C310.601 145.816 315.849 135.173 323.004 125.849C330.159 116.524 339.081 108.7 349.259 102.824C359.438 96.947 370.674 93.1328 382.327 91.5987L385.719 117.36C377.449 118.448 369.475 121.155 362.251 125.326C355.027 129.496 348.696 135.049 343.618 141.666C338.54 148.284 334.816 155.837 332.657 163.894C330.498 171.951 329.947 180.354 331.036 188.624C332.125 196.893 334.832 204.868 339.002 212.091C343.173 219.315 348.725 225.646 355.343 230.724C361.96 235.802 369.513 239.527 377.57 241.685C385.627 243.844 394.03 244.395 402.3 243.306L405.691 269.067Z" fill="#21520B" stroke="black" stroke-width="8" mask="url(#path-16-inside-1_2_13)"/>
<path d="M236.088 256.966C215.151 251.05 181.298 209.962 166.988 190.157L-15.5791 222.965C77.034 236.763 257.026 262.881 236.088 256.966Z" fill="#FFD700" style="mix-blend-mode:overlay"/>
<path d="M236.088 256.966C215.151 251.05 181.298 209.962 166.988 190.157L-15.5791 222.965C77.034 236.763 257.026 262.881 236.088 256.966Z" stroke="black" stroke-width="4"/>
<circle cx="22.8812" cy="207.507" r="35" transform="rotate(82.5 22.8812 207.507)" fill="#FFC805" stroke="black" stroke-width="4"/>
<circle cx="-0.913442" cy="210.64" r="35" transform="rotate(82.5 -0.913442 210.64)" fill="#670D16" stroke="black" stroke-width="4"/>
<path d="M409.24 150.458C384.844 137.532 379.923 96.3219 420.82 81.3558C377.443 77.4845 371.531 36.4048 391.75 17.6048C411.969 -1.19515 439.827 15.0476 457.213 32.1849C475.752 50.4211 501.444 63.0052 515.998 68.8253C503.446 78.214 481.887 97.019 468.699 119.432C456.343 140.495 433.636 163.385 409.24 150.458Z" fill="#5B027A" stroke="black" stroke-width="4"/>
<line x1="545.456" y1="208.805" x2="337.694" y2="208.924" stroke="black"/>
</g>
</svg>
