<svg width="314" height="821" viewBox="0 0 314 821" fill="none" xmlns="http://www.w3.org/2000/svg">
<mask id="mask0_2_9" style="mask-type:alpha" maskUnits="userSpaceOnUse" x="104" y="0" width="210" height="807">
<path d="M313.836 27.5912L104.998 0.0970868L104.996 807L313.836 27.5912Z" fill="white"/>
</mask>
<g mask="url(#mask0_2_9)">
<path d="M313.836 27.5912L104.998 0.0970868L104.996 807L313.836 27.5912Z" fill="#5B027A"/>
<circle cx="536.5" cy="536.5" r="534.5" transform="matrix(-0.991445 -0.130526 -0.130526 0.991445 741.879 85.9613)" fill="#21520B" stroke="black" stroke-width="4"/>
<circle cx="536.5" cy="536.5" r="534.5" transform="matrix(-0.991445 -0.130526 -0.130526 0.991445 737.833 116.696)" fill="#D71818" stroke="black" stroke-width="4"/>
<circle cx="358.5" cy="358.5" r="356.5" transform="matrix(-0.991445 -0.130526 -0.130526 0.991445 546.892 218.646)" fill="#C0E040" stroke="black" stroke-width="4"/>
<circle cx="536.5" cy="536.5" r="534.5" transform="matrix(-0.991445 -0.130526 -0.130526 0.991445 707.42 347.703)" fill="#FFC805" stroke="black" stroke-width="4"/>
<path d="M106.516 174.215C141.819 188.943 166.757 204.134 181.861 220.398C200.655 208.601 228.664 200.383 266.561 195.293C277.605 152.844 269.639 93.9293 204.222 50.7137C169.532 63.022 144.873 79.7517 129.015 100.462C113.272 121.023 106.075 145.673 106.516 174.215Z" fill="#670D16" stroke="#222222" stroke-width="4"/>
<path d="M129.981 183.656C155.01 194.142 172.842 204.982 183.781 216.622C197.353 208.213 217.374 202.359 244.248 198.707C252.008 168.351 246.231 126.4 199.746 95.5145C174.967 104.368 157.392 116.359 146.09 131.143C134.902 145.78 129.736 163.319 129.981 183.656Z" fill="#EDE70F" stroke="#222222" stroke-width="4"/>
<circle cx="578.5" cy="578.5" r="576.5" transform="matrix(-0.991445 -0.130526 -0.130526 0.991445 756.5 296.673)" fill="#FF9B04" stroke="black" stroke-width="4"/>
<path d="M182.507 221.105C304.585 301.869 281.103 362.335 260.716 378.661L63.9017 352.75C51.4496 332.384 39.7087 271.253 182.507 221.105Z" fill="#21520B" stroke="black" stroke-width="4"/>
<path d="M180.027 239.942C302.105 320.706 278.623 381.172 258.236 397.499L61.4217 371.587C48.9696 351.221 37.2287 290.091 180.027 239.942Z" fill="white" stroke="black" stroke-width="4"/>
<circle cx="326.5" cy="326.5" r="324.5" transform="matrix(-0.991445 -0.130526 -0.130526 0.991445 499.216 320.292)" fill="#FFFA36" stroke="black" stroke-width="4"/>
<rect x="-2.24394" y="1.72184" width="166" height="166" transform="matrix(-0.991445 -0.130526 -0.130526 0.991445 199.95 500.046)" fill="#FFC805" stroke="black" stroke-width="4"/>
<path d="M94.1166 549.465C98.0924 570.856 135.913 608.325 154.326 624.386L104.96 803.188C99.6892 709.701 90.1409 528.075 94.1166 549.465Z" fill="#9A7B0F" stroke="black" stroke-width="4"/>
<path d="M227.731 658.323L230.444 550.397L122.519 547.683L227.731 658.323Z" fill="#A81F2D" stroke="black" stroke-width="4"/>
<mask id="path-16-inside-1_2_9" fill="white">
<path d="M44.9279 415.309C43.3938 426.961 44.1699 438.802 47.2118 450.155C50.2538 461.508 55.5021 472.15 62.6571 481.475C69.812 490.799 78.7335 498.623 88.9122 504.5C99.0909 510.377 110.327 514.191 121.98 515.725C133.633 517.259 145.474 516.483 156.827 513.441C168.179 510.399 178.822 505.151 188.146 497.996C197.471 490.841 205.295 481.919 211.171 471.741C217.048 461.562 220.862 450.326 222.397 438.673L196.636 435.281C195.547 443.551 192.84 451.525 188.669 458.749C184.499 465.973 178.946 472.304 172.329 477.382C165.711 482.46 158.158 486.184 150.102 488.343C142.045 490.502 133.641 491.053 125.372 489.964C117.102 488.875 109.127 486.168 101.904 481.998C94.6802 477.827 88.3487 472.275 83.271 465.657C78.1932 459.04 74.4686 451.487 72.3097 443.43C70.1509 435.373 69.6001 426.97 70.6889 418.7L44.9279 415.309Z"/>
</mask>
<path d="M44.9279 415.309C43.3938 426.961 44.1699 438.802 47.2118 450.155C50.2538 461.508 55.5021 472.15 62.6571 481.475C69.812 490.799 78.7335 498.623 88.9122 504.5C99.0909 510.377 110.327 514.191 121.98 515.725C133.633 517.259 145.474 516.483 156.827 513.441C168.179 510.399 178.822 505.151 188.146 497.996C197.471 490.841 205.295 481.919 211.171 471.741C217.048 461.562 220.862 450.326 222.397 438.673L196.636 435.281C195.547 443.551 192.84 451.525 188.669 458.749C184.499 465.973 178.946 472.304 172.329 477.382C165.711 482.46 158.158 486.184 150.102 488.343C142.045 490.502 133.641 491.053 125.372 489.964C117.102 488.875 109.127 486.168 101.904 481.998C94.6802 477.827 88.3487 472.275 83.271 465.657C78.1932 459.04 74.4686 451.487 72.3097 443.43C70.1509 435.373 69.6001 426.97 70.6889 418.7L44.9279 415.309Z" fill="#21520B" stroke="black" stroke-width="8" mask="url(#path-16-inside-1_2_9)"/>
<path d="M57.0295 584.912C62.9447 605.849 104.033 639.702 123.838 654.012L91.0298 836.579C77.2317 743.966 51.1144 563.974 57.0295 584.912Z" fill="#FFD700" style="mix-blend-mode:overlay"/>
<path d="M57.0295 584.912C62.9447 605.849 104.033 639.702 123.838 654.012L91.0298 836.579C77.2317 743.966 51.1144 563.974 57.0295 584.912Z" stroke="black" stroke-width="4"/>
<circle cx="37" cy="37" r="35" transform="matrix(-0.991445 -0.130526 -0.130526 0.991445 148.001 766.265)" fill="#FFC805" stroke="black" stroke-width="4"/>
<circle cx="37" cy="37" r="35" transform="matrix(-0.991445 -0.130526 -0.130526 0.991445 144.868 790.059)" fill="#670D16" stroke="black" stroke-width="4"/>
<path d="M163.537 411.76C176.463 436.156 217.673 441.077 232.639 400.18C236.511 443.557 277.59 449.469 296.39 429.25C315.19 409.031 298.948 381.173 281.81 363.787C263.574 345.248 250.99 319.556 245.17 305.002C235.781 317.554 216.976 339.114 194.563 352.301C173.5 364.657 150.61 387.364 163.537 411.76Z" fill="#5B027A" stroke="black" stroke-width="4"/>
<line y1="-0.5" x2="207.762" y2="-0.5" transform="matrix(-0.000574621 1 1 0.000574621 105.691 275.544)" stroke="black"/>
</g>
</svg>
