<svg width="502" height="821" viewBox="0 0 502 821" fill="none" xmlns="http://www.w3.org/2000/svg">
<mask id="mask0_2_24" style="mask-type:alpha" maskUnits="userSpaceOnUse" x="0" y="40" width="404" height="781">
<path d="M195.152 820.405L0.546121 739.797L403.996 40.9972L195.152 820.405Z" fill="white"/>
</mask>
<g mask="url(#mask0_2_24)">
<path d="M195.152 820.405L0.546121 739.797L403.996 40.9972L195.152 820.405Z" fill="#5B027A"/>
<circle cx="304.682" cy="282.905" r="534.5" transform="rotate(-157.5 304.682 282.905)" fill="#21520B" stroke="black" stroke-width="4"/>
<circle cx="316.545" cy="254.265" r="534.5" transform="rotate(-157.5 316.545 254.265)" fill="#D71818" stroke="black" stroke-width="4"/>
<circle cx="298.493" cy="303.072" r="356.5" transform="rotate(-157.5 298.493 303.072)" fill="#C0E040" stroke="black" stroke-width="4"/>
<circle cx="405.71" cy="39.0013" r="534.5" transform="rotate(-157.5 405.71 39.0013)" fill="#FFC805" stroke="black" stroke-width="4"/>
<path d="M88.9202 589.766C126.858 594.662 156.049 593.975 177.262 587.442C187.64 607.056 207.787 628.177 238.062 651.533C226.402 693.818 190.046 740.856 111.785 745.574C87.8969 717.569 74.9066 690.751 71.5286 664.887C68.1751 639.209 74.2674 614.263 88.9202 589.766Z" fill="#670D16" stroke="#222222" stroke-width="4"/>
<path d="M113.961 593.322C140.88 596.755 161.744 596.283 177.036 591.672C184.586 605.741 198.998 620.821 220.446 637.42C211.987 667.589 186.009 701.032 130.31 704.537C113.277 684.48 104.051 665.308 101.656 646.853C99.2853 628.584 103.581 610.812 113.961 593.322Z" fill="#EDE70F" stroke="#222222" stroke-width="4"/>
<circle cx="399.97" cy="52.8595" r="576.5" transform="rotate(-157.5 399.97 52.8595)" fill="#FF9B04" stroke="black" stroke-width="4"/>
<path d="M178.175 587.153C324.279 578.248 334.176 514.142 324.684 489.81L141.282 413.842C120.315 425.254 79.5823 472.324 178.175 587.153Z" fill="#21520B" stroke="black" stroke-width="4"/>
<path d="M185.446 569.599C331.55 560.694 341.447 496.589 331.955 472.256L148.553 396.288C127.586 407.7 86.8533 454.77 185.446 569.599Z" fill="white" stroke="black" stroke-width="4"/>
<circle cx="325.347" cy="233.016" r="324.5" transform="rotate(-157.5 325.347 233.016)" fill="#FFFA36" stroke="black" stroke-width="4"/>
<rect x="335.484" y="353.572" width="166" height="166" transform="rotate(-157.5 335.484 353.572)" fill="#FFC805" stroke="black" stroke-width="4"/>
<path d="M265.807 258.589C279.945 242.052 331.434 228.514 355.41 223.811L402.059 44.2812C350.751 122.608 251.669 275.126 265.807 258.589Z" fill="#9A7B0F" stroke="black" stroke-width="4"/>
<path d="M435.949 231.123L384.336 325.947L289.513 274.334L435.949 231.123Z" fill="#A81F2D" stroke="black" stroke-width="4"/>
<mask id="path-16-inside-1_2_24" fill="white">
<path d="M156.13 350.178C160.628 339.319 167.22 329.453 175.531 321.142C183.842 312.831 193.708 306.239 204.567 301.741C215.425 297.243 227.064 294.928 238.817 294.928C250.57 294.928 262.209 297.243 273.067 301.741C283.926 306.239 293.792 312.831 302.103 321.142C310.414 329.453 317.006 339.319 321.504 350.178C326.002 361.037 328.317 372.675 328.317 384.428C328.317 396.181 326.002 407.82 321.504 418.678L297.499 408.735C300.691 401.029 302.334 392.769 302.334 384.428C302.334 376.087 300.691 367.828 297.499 360.121C294.307 352.415 289.628 345.413 283.73 339.515C277.832 333.617 270.83 328.938 263.124 325.746C255.418 322.554 247.158 320.911 238.817 320.911C230.476 320.911 222.216 322.554 214.51 325.746C206.804 328.938 199.802 333.617 193.904 339.515C188.006 345.413 183.327 352.415 180.135 360.121L156.13 350.178Z"/>
</mask>
<path d="M156.13 350.178C160.628 339.319 167.22 329.453 175.531 321.142C183.842 312.831 193.708 306.239 204.567 301.741C215.425 297.243 227.064 294.928 238.817 294.928C250.57 294.928 262.209 297.243 273.067 301.741C283.926 306.239 293.792 312.831 302.103 321.142C310.414 329.453 317.006 339.319 321.504 350.178C326.002 361.037 328.317 372.675 328.317 384.428C328.317 396.181 326.002 407.82 321.504 418.678L297.499 408.735C300.691 401.029 302.334 392.769 302.334 384.428C302.334 376.087 300.691 367.828 297.499 360.121C294.307 352.415 289.628 345.413 283.73 339.515C277.832 333.617 270.83 328.938 263.124 325.746C255.418 322.554 247.158 320.911 238.817 320.911C230.476 320.911 222.216 322.554 214.51 325.746C206.804 328.938 199.802 333.617 193.904 339.515C188.006 345.413 183.327 352.415 180.135 360.121L156.13 350.178Z" fill="#21520B" stroke="black" stroke-width="8" mask="url(#path-16-inside-1_2_24)"/>
<path d="M251.412 209.348C267.003 194.174 319.514 185.4 343.82 182.91L406.691 8.39796C348.435 81.7042 235.82 224.523 251.412 209.348Z" fill="#FFD700" style="mix-blend-mode:overlay"/>
<path d="M251.412 209.348C267.003 194.174 319.514 185.4 343.82 182.91L406.691 8.39796C348.435 81.7042 235.82 224.523 251.412 209.348Z" stroke="black" stroke-width="4"/>
<circle cx="400.847" cy="49.4346" r="35" transform="rotate(-157.5 400.847 49.4346)" fill="#FFC805" stroke="black" stroke-width="4"/>
<circle cx="410.032" cy="27.2615" r="35" transform="rotate(-157.5 410.032 27.2615)" fill="#670D16" stroke="black" stroke-width="4"/>
<path d="M257.074 412.556C280.466 397.891 318.616 414.235 311.129 457.135C336.17 421.506 374.702 436.925 380.874 463.835C387.045 490.746 359.049 506.75 335.515 513.238C310.453 520.175 286.708 536.133 274.391 545.827C272.536 530.263 267.03 502.189 254.214 479.562C242.151 458.329 233.681 427.22 257.074 412.556Z" fill="#5B027A" stroke="black" stroke-width="4"/>
<line x1="138.436" y1="501.349" x2="242.214" y2="321.363" stroke="black"/>
</g>
</svg>
