<svg width="764" height="655" viewBox="0 0 764 655" fill="none" xmlns="http://www.w3.org/2000/svg">
<mask id="mask0_2_26" style="mask-type:alpha" maskUnits="userSpaceOnUse" x="0" y="0" width="699" height="571">
<path d="M128.431 0.434902L0.201877 167.547L698.999 571L128.431 0.434902Z" fill="white"/>
</mask>
<g mask="url(#mask0_2_26)">
<path d="M128.431 0.434902L0.201877 167.547L698.999 571L128.431 0.434902Z" fill="#5B027A"/>
<circle cx="536.5" cy="536.5" r="534.5" transform="matrix(-0.608761 0.793353 0.793353 0.608761 393.003 -341.076)" fill="#21520B" stroke="black" stroke-width="4"/>
<circle cx="536.5" cy="536.5" r="534.5" transform="matrix(-0.608761 0.793353 0.793353 0.608761 417.597 -322.205)" fill="#D71818" stroke="black" stroke-width="4"/>
<circle cx="358.5" cy="358.5" r="356.5" transform="matrix(-0.608761 0.793353 0.793353 0.608761 410.417 -105.87)" fill="#C0E040" stroke="black" stroke-width="4"/>
<circle cx="536.5" cy="536.5" r="534.5" transform="matrix(-0.608761 0.793353 0.793353 0.608761 602.448 -180.363)" fill="#FFC805" stroke="black" stroke-width="4"/>
<path d="M151.752 253.29C182.158 230.081 207.783 216.081 229.42 211.132C228.6 188.957 235.488 160.591 250.028 125.227C218.788 94.4377 163.784 71.8795 93.6495 106.924C86.9636 143.121 89.1225 172.841 99.1294 196.929C109.064 220.843 126.813 239.402 151.752 253.29Z" fill="#670D16" stroke="#222222" stroke-width="4"/>
<path d="M171.66 237.69C193.255 221.258 211.56 211.234 227.109 207.581C226.613 191.623 231.554 171.357 241.829 146.258C219.419 124.36 180.2 108.387 130.21 133.201C125.488 159.087 127.084 180.303 134.237 197.483C141.319 214.49 153.925 227.733 171.66 237.69Z" fill="#EDE70F" stroke="#222222" stroke-width="4"/>
<circle cx="578.5" cy="578.5" r="576.5" transform="matrix(-0.608761 0.793353 0.793353 0.608761 582.795 -248.383)" fill="#FF9B04" stroke="black" stroke-width="4"/>
<path d="M230.355 210.926C361.337 145.585 401.961 196.154 405.907 221.973L285.06 379.463C261.197 380.064 202.386 359.667 230.355 210.926Z" fill="#21520B" stroke="black" stroke-width="4"/>
<path d="M245.428 222.492C376.411 157.152 417.035 207.72 420.981 233.539L300.134 391.03C276.27 391.631 217.459 371.233 245.428 222.492Z" fill="white" stroke="black" stroke-width="4"/>
<circle cx="326.5" cy="326.5" r="324.5" transform="matrix(-0.608761 0.793353 0.793353 0.608761 474.608 -13.759)" fill="#FFFA36" stroke="black" stroke-width="4"/>
<rect x="0.369184" y="2.80423" width="166" height="166" transform="matrix(-0.608761 0.793353 0.793353 0.608761 481.378 332.559)" fill="#FFC805" stroke="black" stroke-width="4"/>
<path d="M470.528 451.654C491.041 458.906 542.4 444.887 565.516 436.971L695.68 569.124C612.082 526.946 450.015 444.402 470.528 451.654Z" fill="#9A7B0F" stroke="black" stroke-width="4"/>
<path d="M631.608 390.37L539.499 334.057L483.186 426.166L631.608 390.37Z" fill="#A81F2D" stroke="black" stroke-width="4"/>
<mask id="path-16-inside-1_2_26" fill="white">
<path d="M329.751 427.175C339.075 434.33 349.718 439.578 361.07 442.62C372.423 445.662 384.264 446.438 395.917 444.904C407.57 443.37 418.806 439.555 428.985 433.679C439.163 427.802 448.085 419.978 455.24 410.654C462.395 401.329 467.643 390.687 470.685 379.334C473.727 367.981 474.503 356.14 472.969 344.487C471.435 332.835 467.621 321.598 461.744 311.42C455.867 301.241 448.043 292.319 438.719 285.164L422.901 305.778C429.519 310.856 435.071 317.188 439.242 324.411C443.412 331.635 446.119 339.609 447.208 347.879C448.297 356.149 447.746 364.552 445.587 372.609C443.428 380.666 439.704 388.219 434.626 394.836C429.548 401.454 423.217 407.006 415.993 411.177C408.769 415.347 400.795 418.054 392.525 419.143C384.256 420.232 375.852 419.681 367.795 417.522C359.738 415.363 352.186 411.638 345.568 406.561L329.751 427.175Z"/>
</mask>
<path d="M329.751 427.175C339.075 434.33 349.718 439.578 361.07 442.62C372.423 445.662 384.264 446.438 395.917 444.904C407.57 443.37 418.806 439.555 428.985 433.679C439.163 427.802 448.085 419.978 455.24 410.654C462.395 401.329 467.643 390.687 470.685 379.334C473.727 367.981 474.503 356.14 472.969 344.487C471.435 332.835 467.621 321.598 461.744 311.42C455.867 301.241 448.043 292.319 438.719 285.164L422.901 305.778C429.519 310.856 435.071 317.188 439.242 324.411C443.412 331.635 446.119 339.609 447.208 347.879C448.297 356.149 447.746 364.552 445.587 372.609C443.428 380.666 439.704 388.219 434.626 394.836C429.548 401.454 423.217 407.006 415.993 411.177C408.769 415.347 400.795 418.054 392.525 419.143C384.256 420.232 375.852 419.681 367.795 417.522C359.738 415.363 352.186 411.638 345.568 406.561L329.751 427.175Z" fill="#21520B" stroke="black" stroke-width="8" mask="url(#path-16-inside-1_2_26)"/>
<path d="M482.682 501.496C503.772 506.842 553.634 488.185 575.929 478.188L717.633 597.884C630.528 563.527 461.592 496.15 482.682 501.496Z" fill="#FFD700" style="mix-blend-mode:overlay"/>
<path d="M482.682 501.496C503.772 506.842 553.634 488.185 575.929 478.188L717.633 597.884C630.528 563.527 461.592 496.15 482.682 501.496Z" stroke="black" stroke-width="4"/>
<circle cx="37" cy="37" r="35" transform="matrix(-0.608761 0.793353 0.793353 0.608761 685.224 513.389)" fill="#FFC805" stroke="black" stroke-width="4"/>
<circle cx="37" cy="37" r="35" transform="matrix(-0.608761 0.793353 0.793353 0.608761 704.264 527.999)" fill="#670D16" stroke="black" stroke-width="4"/>
<path d="M385.982 322.682C413.572 323.685 438.439 290.457 410.505 257.048C450.006 275.383 475.666 242.763 467.556 216.373C459.446 189.982 427.198 190.119 403.573 196.268C378.4 202.791 349.857 200.843 334.343 198.607C340.519 213.013 349.788 240.079 350.002 266.083C350.171 290.502 358.391 321.678 385.982 322.682Z" fill="#5B027A" stroke="black" stroke-width="4"/>
<line y1="-0.5" x2="207.762" y2="-0.5" transform="matrix(0.865738 0.500498 0.500498 -0.865738 239.092 304.67)" stroke="black"/>
</g>
</svg>
