<svg width="502" height="821" viewBox="0 0 502 821" fill="none" xmlns="http://www.w3.org/2000/svg">
<mask id="mask0_2_12" style="mask-type:alpha" maskUnits="userSpaceOnUse" x="97" y="41" width="405" height="780">
<path d="M306.84 820.409L501.446 739.801L97.9958 41.0011L306.84 820.409Z" fill="white"/>
</mask>
<g mask="url(#mask0_2_12)">
<path d="M306.84 820.409L501.446 739.801L97.9958 41.0011L306.84 820.409Z" fill="#5B027A"/>
<circle cx="536.5" cy="536.5" r="534.5" transform="matrix(0.92388 -0.382683 -0.382683 -0.92388 -93.0417 983.88)" fill="#21520B" stroke="black" stroke-width="4"/>
<circle cx="536.5" cy="536.5" r="534.5" transform="matrix(0.92388 -0.382683 -0.382683 -0.92388 -104.905 955.24)" fill="#D71818" stroke="black" stroke-width="4"/>
<circle cx="358.5" cy="358.5" r="356.5" transform="matrix(0.92388 -0.382683 -0.382683 -0.92388 9.47974 771.479)" fill="#C0E040" stroke="black" stroke-width="4"/>
<circle cx="536.5" cy="536.5" r="534.5" transform="matrix(0.92388 -0.382683 -0.382683 -0.92388 -194.07 739.976)" fill="#FFC805" stroke="black" stroke-width="4"/>
<path d="M413.072 589.77C375.134 594.666 345.942 593.979 324.73 587.446C314.352 607.06 294.204 628.181 263.93 651.537C275.59 693.822 311.946 740.86 390.206 745.577C414.095 717.573 427.085 690.755 430.463 664.891C433.817 639.213 427.724 614.267 413.072 589.77Z" fill="#670D16" stroke="#222222" stroke-width="4"/>
<path d="M388.03 593.326C361.112 596.759 340.248 596.287 324.955 591.676C317.405 605.745 302.994 620.825 281.546 637.424C290.004 667.593 315.983 701.036 371.682 704.541C388.715 684.484 397.94 665.312 400.335 646.857C402.706 628.588 398.411 610.816 388.03 593.326Z" fill="#EDE70F" stroke="#222222" stroke-width="4"/>
<circle cx="578.5" cy="578.5" r="576.5" transform="matrix(0.92388 -0.382683 -0.382683 -0.92388 -211.06 808.71)" fill="#FF9B04" stroke="black" stroke-width="4"/>
<path d="M323.817 587.157C177.712 578.252 167.815 514.146 177.308 489.814L360.709 413.846C381.676 425.258 422.409 472.328 323.817 587.157Z" fill="#21520B" stroke="black" stroke-width="4"/>
<path d="M316.546 569.603C170.441 560.698 160.544 496.592 170.037 472.26L353.438 396.292C374.405 407.704 415.138 454.774 316.546 569.603Z" fill="white" stroke="black" stroke-width="4"/>
<circle cx="326.5" cy="326.5" r="324.5" transform="matrix(0.92388 -0.382683 -0.382683 -0.92388 -0.0554199 659.613)" fill="#FFFA36" stroke="black" stroke-width="4"/>
<rect x="1.08239" y="-2.61313" width="166" height="166" transform="matrix(0.92388 -0.382683 -0.382683 -0.92388 164.508 351.576)" fill="#FFC805" stroke="black" stroke-width="4"/>
<path d="M236.185 258.593C222.046 242.056 170.558 228.517 146.581 223.815L99.9328 44.2851C151.241 122.611 250.323 275.13 236.185 258.593Z" fill="#9A7B0F" stroke="black" stroke-width="4"/>
<path d="M66.0431 231.127L117.656 325.95L212.479 274.338L66.0431 231.127Z" fill="#A81F2D" stroke="black" stroke-width="4"/>
<mask id="path-16-inside-1_2_12" fill="white">
<path d="M345.862 350.182C341.364 339.323 334.772 329.457 326.461 321.146C318.15 312.835 308.284 306.243 297.425 301.745C286.566 297.247 274.928 294.932 263.175 294.932C251.421 294.932 239.783 297.247 228.925 301.745C218.066 306.243 208.2 312.835 199.889 321.146C191.578 329.457 184.985 339.323 180.488 350.182C175.99 361.04 173.675 372.679 173.675 384.432C173.675 396.185 175.99 407.824 180.488 418.682L204.493 408.739C201.301 401.033 199.658 392.773 199.658 384.432C199.658 376.091 201.301 367.831 204.493 360.125C207.685 352.419 212.364 345.417 218.262 339.519C224.16 333.621 231.162 328.942 238.868 325.75C246.574 322.558 254.834 320.915 263.175 320.915C271.516 320.915 279.775 322.558 287.482 325.75C295.188 328.942 302.19 333.621 308.088 339.519C313.986 345.417 318.665 352.419 321.857 360.125L345.862 350.182Z"/>
</mask>
<path d="M345.862 350.182C341.364 339.323 334.772 329.457 326.461 321.146C318.15 312.835 308.284 306.243 297.425 301.745C286.566 297.247 274.928 294.932 263.175 294.932C251.421 294.932 239.783 297.247 228.925 301.745C218.066 306.243 208.2 312.835 199.889 321.146C191.578 329.457 184.985 339.323 180.488 350.182C175.99 361.04 173.675 372.679 173.675 384.432C173.675 396.185 175.99 407.824 180.488 418.682L204.493 408.739C201.301 401.033 199.658 392.773 199.658 384.432C199.658 376.091 201.301 367.831 204.493 360.125C207.685 352.419 212.364 345.417 218.262 339.519C224.16 333.621 231.162 328.942 238.868 325.75C246.574 322.558 254.834 320.915 263.175 320.915C271.516 320.915 279.775 322.558 287.482 325.75C295.188 328.942 302.19 333.621 308.088 339.519C313.986 345.417 318.665 352.419 321.857 360.125L345.862 350.182Z" fill="#21520B" stroke="black" stroke-width="8" mask="url(#path-16-inside-1_2_12)"/>
<path d="M250.58 209.352C234.989 194.178 182.478 185.404 158.172 182.914L95.3013 8.40182C153.557 81.7081 266.171 224.527 250.58 209.352Z" fill="#FFD700" style="mix-blend-mode:overlay"/>
<path d="M250.58 209.352C234.989 194.178 182.478 185.404 158.172 182.914L95.3013 8.40182C153.557 81.7081 266.171 224.527 250.58 209.352Z" stroke="black" stroke-width="4"/>
<circle cx="37" cy="37" r="35" transform="matrix(0.92388 -0.382683 -0.382683 -0.92388 81.1201 97.7813)" fill="#FFC805" stroke="black" stroke-width="4"/>
<circle cx="37" cy="37" r="35" transform="matrix(0.92388 -0.382683 -0.382683 -0.92388 71.9358 75.6082)" fill="#670D16" stroke="black" stroke-width="4"/>
<path d="M244.918 412.56C221.526 397.895 183.376 414.239 190.863 457.139C165.822 421.51 127.29 436.929 121.118 463.839C114.946 490.749 142.942 506.754 166.476 513.242C191.539 520.179 215.283 536.137 227.601 545.831C229.456 530.267 234.961 502.193 247.778 479.566C259.841 458.333 268.31 427.224 244.918 412.56Z" fill="#5B027A" stroke="black" stroke-width="4"/>
<line y1="-0.5" x2="207.762" y2="-0.5" transform="matrix(-0.499502 -0.866313 -0.866313 0.499502 363.122 501.603)" stroke="black"/>
</g>
</svg>
