<svg width="821" height="502" viewBox="0 0 821 502" fill="none" xmlns="http://www.w3.org/2000/svg">
<mask id="mask0_2_29" style="mask-type:alpha" maskUnits="userSpaceOnUse" x="40" y="98" width="781" height="404">
<path d="M820.407 306.846L739.799 501.452L40.9991 98.0026L820.407 306.846Z" fill="white"/>
</mask>
<g mask="url(#mask0_2_29)">
<path d="M820.407 306.846L739.799 501.452L40.9991 98.0026L820.407 306.846Z" fill="#5B027A"/>
<circle cx="282.907" cy="197.317" r="534.5" transform="rotate(112.5 282.907 197.317)" fill="#21520B" stroke="black" stroke-width="4"/>
<circle cx="254.267" cy="185.454" r="534.5" transform="rotate(112.5 254.267 185.454)" fill="#D71818" stroke="black" stroke-width="4"/>
<circle cx="303.074" cy="203.505" r="356.5" transform="rotate(112.5 303.074 203.505)" fill="#C0E040" stroke="black" stroke-width="4"/>
<circle cx="39.0033" cy="96.2884" r="534.5" transform="rotate(112.5 39.0033 96.2884)" fill="#FFC805" stroke="black" stroke-width="4"/>
<path d="M589.768 413.078C594.664 375.141 593.977 345.949 587.444 324.736C607.058 314.359 628.179 294.211 651.535 263.937C693.82 275.597 740.858 311.953 745.575 390.213C717.571 414.102 690.753 427.092 664.889 430.47C639.211 433.823 614.265 427.731 589.768 413.078Z" fill="#670D16" stroke="#222222" stroke-width="4"/>
<path d="M593.324 388.037C596.757 361.119 596.285 340.255 591.674 324.962C605.742 317.412 620.823 303.001 637.422 281.553C667.591 290.011 701.034 315.99 704.539 371.689C684.482 388.722 665.31 397.947 646.855 400.342C628.586 402.713 610.814 398.417 593.324 388.037Z" fill="#EDE70F" stroke="#222222" stroke-width="4"/>
<circle cx="52.8613" cy="102.029" r="576.5" transform="rotate(112.5 52.8613 102.029)" fill="#FF9B04" stroke="black" stroke-width="4"/>
<path d="M587.155 323.824C578.25 177.719 514.144 167.822 489.812 177.314L413.844 360.716C425.256 381.683 472.326 422.416 587.155 323.824Z" fill="#21520B" stroke="black" stroke-width="4"/>
<path d="M569.601 316.553C560.696 170.448 496.59 160.551 472.258 170.043L396.29 353.445C407.702 374.412 454.772 415.145 569.601 316.553Z" fill="white" stroke="black" stroke-width="4"/>
<circle cx="233.018" cy="176.652" r="324.5" transform="rotate(112.5 233.018 176.652)" fill="#FFFA36" stroke="black" stroke-width="4"/>
<rect x="353.574" y="166.515" width="166" height="166" transform="rotate(112.5 353.574 166.515)" fill="#FFC805" stroke="black" stroke-width="4"/>
<path d="M258.591 236.192C242.054 222.053 228.515 170.565 223.813 146.588L44.2831 99.9395C122.61 151.248 275.128 250.33 258.591 236.192Z" fill="#9A7B0F" stroke="black" stroke-width="4"/>
<path d="M231.125 66.0498L325.948 117.662L274.336 212.486L231.125 66.0498Z" fill="#A81F2D" stroke="black" stroke-width="4"/>
<mask id="path-16-inside-1_2_29" fill="white">
<path d="M350.18 345.869C339.321 341.371 329.455 334.778 321.144 326.468C312.833 318.157 306.241 308.29 301.743 297.432C297.245 286.573 294.93 274.935 294.93 263.181C294.93 251.428 297.245 239.79 301.743 228.931C306.241 218.073 312.833 208.206 321.144 199.895C329.455 191.585 339.321 184.992 350.18 180.494C361.039 175.996 372.677 173.681 384.43 173.681C396.183 173.681 407.822 175.996 418.68 180.494L408.737 204.5C401.031 201.308 392.771 199.665 384.43 199.665C376.089 199.665 367.829 201.308 360.123 204.5C352.417 207.692 345.415 212.37 339.517 218.268C333.619 224.166 328.94 231.168 325.748 238.875C322.556 246.581 320.913 254.84 320.913 263.181C320.913 271.523 322.556 279.782 325.748 287.488C328.94 295.194 333.619 302.197 339.517 308.095C345.415 313.993 352.417 318.671 360.123 321.863L350.18 345.869Z"/>
</mask>
<path d="M350.18 345.869C339.321 341.371 329.455 334.778 321.144 326.468C312.833 318.157 306.241 308.29 301.743 297.432C297.245 286.573 294.93 274.935 294.93 263.181C294.93 251.428 297.245 239.79 301.743 228.931C306.241 218.073 312.833 208.206 321.144 199.895C329.455 191.585 339.321 184.992 350.18 180.494C361.039 175.996 372.677 173.681 384.43 173.681C396.183 173.681 407.822 175.996 418.68 180.494L408.737 204.5C401.031 201.308 392.771 199.665 384.43 199.665C376.089 199.665 367.829 201.308 360.123 204.5C352.417 207.692 345.415 212.37 339.517 218.268C333.619 224.166 328.94 231.168 325.748 238.875C322.556 246.581 320.913 254.84 320.913 263.181C320.913 271.523 322.556 279.782 325.748 287.488C328.94 295.194 333.619 302.197 339.517 308.095C345.415 313.993 352.417 318.671 360.123 321.863L350.18 345.869Z" fill="#21520B" stroke="black" stroke-width="8" mask="url(#path-16-inside-1_2_29)"/>
<path d="M209.35 250.587C194.176 234.995 185.402 182.485 182.912 158.179L8.39988 95.308C81.7061 153.564 224.525 266.178 209.35 250.587Z" fill="#FFD700" style="mix-blend-mode:overlay"/>
<path d="M209.35 250.587C194.176 234.995 185.402 182.485 182.912 158.179L8.39988 95.308C81.7061 153.564 224.525 266.178 209.35 250.587Z" stroke="black" stroke-width="4"/>
<circle cx="49.4366" cy="101.151" r="35" transform="rotate(112.5 49.4366 101.151)" fill="#FFC805" stroke="black" stroke-width="4"/>
<circle cx="27.2634" cy="91.9668" r="35" transform="rotate(112.5 27.2634 91.9668)" fill="#670D16" stroke="black" stroke-width="4"/>
<path d="M412.558 244.925C397.893 221.532 414.237 183.383 457.137 190.87C421.508 165.829 436.927 127.297 463.837 121.125C490.748 114.953 506.752 142.949 513.24 166.483C520.177 191.546 536.135 215.29 545.83 227.608C530.265 229.462 502.191 234.968 479.564 247.785C458.331 259.848 427.222 268.317 412.558 244.925Z" fill="#5B027A" stroke="black" stroke-width="4"/>
<line x1="501.351" y1="363.562" x2="321.365" y2="259.784" stroke="black"/>
</g>
</svg>
